<svg xmlns="http://www.w3.org/2000/svg" width="1768" height="903" viewBox="0 0 1768 903" font-family="'Hiragino Sans','Noto Sans JP',sans-serif">
<rect width="1768" height="903" fill="#faf8f4"/>
<rect x="84" y="364" width="1600" height="100" fill="#f1ebdd"/>
<rect x="1044" y="204" width="160" height="160" fill="#f1ebdd"/>
<rect x="84" y="84" width="160" height="280" fill="#f1ebdd"/>
<rect x="1044" y="84" width="160" height="120" fill="#f1ebdd"/>
<rect x="1524" y="84" width="160" height="280" fill="#f1ebdd"/>
<rect x="84" y="464" width="800" height="280" fill="#f1ebdd"/>
<rect x="884" y="464" width="800" height="280" fill="#f1ebdd"/>
<rect x="84" y="744" width="800" height="75" fill="#f8f5ec"/>
<rect x="884" y="744" width="800" height="75" fill="#f8f5ec"/>
<rect x="244" y="84" width="800" height="280" fill="#f8f5ec"/>
<rect x="1204" y="84" width="320" height="280" fill="#f1ebdd"/>
<line x1="84" y1="58" x2="84" y2="845" stroke="#b5aa94" stroke-width="0.8" stroke-dasharray="7 3 1.5 3"/>
<circle cx="84" cy="44" r="11" fill="none" stroke="#b5aa94" stroke-width="1"/>
<text x="84" y="48" text-anchor="middle" font-size="10" fill="#b5aa94">X1</text>
<line x1="404" y1="58" x2="404" y2="845" stroke="#b5aa94" stroke-width="0.8" stroke-dasharray="7 3 1.5 3"/>
<circle cx="404" cy="44" r="11" fill="none" stroke="#b5aa94" stroke-width="1"/>
<text x="404" y="48" text-anchor="middle" font-size="10" fill="#b5aa94">X2</text>
<line x1="724" y1="58" x2="724" y2="845" stroke="#b5aa94" stroke-width="0.8" stroke-dasharray="7 3 1.5 3"/>
<circle cx="724" cy="44" r="11" fill="none" stroke="#b5aa94" stroke-width="1"/>
<text x="724" y="48" text-anchor="middle" font-size="10" fill="#b5aa94">X3</text>
<line x1="1044" y1="58" x2="1044" y2="845" stroke="#b5aa94" stroke-width="0.8" stroke-dasharray="7 3 1.5 3"/>
<circle cx="1044" cy="44" r="11" fill="none" stroke="#b5aa94" stroke-width="1"/>
<text x="1044" y="48" text-anchor="middle" font-size="10" fill="#b5aa94">X4</text>
<line x1="1364" y1="58" x2="1364" y2="845" stroke="#b5aa94" stroke-width="0.8" stroke-dasharray="7 3 1.5 3"/>
<circle cx="1364" cy="44" r="11" fill="none" stroke="#b5aa94" stroke-width="1"/>
<text x="1364" y="48" text-anchor="middle" font-size="10" fill="#b5aa94">X5</text>
<line x1="1684" y1="58" x2="1684" y2="845" stroke="#b5aa94" stroke-width="0.8" stroke-dasharray="7 3 1.5 3"/>
<circle cx="1684" cy="44" r="11" fill="none" stroke="#b5aa94" stroke-width="1"/>
<text x="1684" y="48" text-anchor="middle" font-size="10" fill="#b5aa94">X6</text>
<line x1="58" y1="744" x2="1710" y2="744" stroke="#b5aa94" stroke-width="0.8" stroke-dasharray="7 3 1.5 3"/>
<circle cx="44" cy="744" r="11" fill="none" stroke="#b5aa94" stroke-width="1"/>
<text x="44" y="747.5" text-anchor="middle" font-size="10" fill="#b5aa94">Y1</text>
<line x1="58" y1="464" x2="1710" y2="464" stroke="#b5aa94" stroke-width="0.8" stroke-dasharray="7 3 1.5 3"/>
<circle cx="44" cy="464" r="11" fill="none" stroke="#b5aa94" stroke-width="1"/>
<text x="44" y="467.5" text-anchor="middle" font-size="10" fill="#b5aa94">Y2</text>
<line x1="58" y1="364" x2="1710" y2="364" stroke="#b5aa94" stroke-width="0.8" stroke-dasharray="7 3 1.5 3"/>
<circle cx="44" cy="364" r="11" fill="none" stroke="#b5aa94" stroke-width="1"/>
<text x="44" y="367.5" text-anchor="middle" font-size="10" fill="#b5aa94">Y3</text>
<line x1="58" y1="84" x2="1710" y2="84" stroke="#b5aa94" stroke-width="0.8" stroke-dasharray="7 3 1.5 3"/>
<circle cx="44" cy="84" r="11" fill="none" stroke="#b5aa94" stroke-width="1"/>
<text x="44" y="87.5" text-anchor="middle" font-size="10" fill="#b5aa94">Y4</text>
<rect x="84" y="359" width="160" height="10" fill="#1f1f1f"/>
<rect x="1524" y="359" width="160" height="10" fill="#1f1f1f"/>
<rect x="1044" y="199" width="160" height="10" fill="#1f1f1f"/>
<rect x="79" y="84" width="10" height="280" fill="#1f1f1f"/>
<rect x="84" y="79" width="160" height="10" fill="#1f1f1f"/>
<rect x="1679" y="84" width="10" height="280" fill="#1f1f1f"/>
<rect x="1524" y="79" width="160" height="10" fill="#1f1f1f"/>
<rect x="1044" y="79" width="160" height="10" fill="#1f1f1f"/>
<rect x="79" y="364" width="10" height="100" fill="#1f1f1f"/>
<rect x="1679" y="364" width="10" height="100" fill="#1f1f1f"/>
<rect x="879.5" y="464" width="9" height="280" fill="#1f1f1f"/>
<rect x="84" y="459.5" width="800" height="9" fill="#1f1f1f"/>
<rect x="884" y="459.5" width="800" height="9" fill="#1f1f1f"/>
<rect x="84" y="741.5" width="800" height="5" fill="#1f1f1f"/>
<rect x="884" y="741.5" width="800" height="5" fill="#1f1f1f"/>
<rect x="79" y="464" width="10" height="280" fill="#1f1f1f"/>
<rect x="1679" y="464" width="10" height="280" fill="#1f1f1f"/>
<line x1="884" y1="819" x2="884" y2="744" stroke="#1f1f1f" stroke-width="1.4"/>
<line x1="84" y1="819" x2="884" y2="819" stroke="#1f1f1f" stroke-width="1.4"/>
<line x1="884" y1="819" x2="1684" y2="819" stroke="#1f1f1f" stroke-width="1.4"/>
<line x1="84" y1="819" x2="84" y2="744" stroke="#1f1f1f" stroke-width="1.4"/>
<line x1="1684" y1="819" x2="1684" y2="744" stroke="#1f1f1f" stroke-width="1.4"/>
<rect x="244" y="361" width="800" height="6" fill="#1f1f1f"/>
<rect x="1041" y="204" width="6" height="160" fill="#1f1f1f"/>
<rect x="239.5" y="84" width="9" height="280" fill="#1f1f1f"/>
<rect x="1039.5" y="84" width="9" height="120" fill="#1f1f1f"/>
<line x1="244" y1="84" x2="1044" y2="84" stroke="#1f1f1f" stroke-width="1.4"/>
<rect x="1204" y="360.25" width="320" height="7.5" fill="#1f1f1f"/>
<rect x="1200.25" y="204" width="7.5" height="160" fill="#1f1f1f"/>
<rect x="1199.5" y="84" width="9" height="120" fill="#1f1f1f"/>
<rect x="1519.5" y="84" width="9" height="280" fill="#1f1f1f"/>
<rect x="1204" y="79" width="320" height="10" fill="#1f1f1f"/>
<rect x="141.5" y="358.25" width="45" height="11.5" fill="#faf8f4"/>
<line x1="141.5" y1="364" x2="141.5" y2="409" stroke="#1f1f1f" stroke-width="1.4"/><path d="M 141.5 409 A 45 45 0 0 0 186.5 364" fill="none" stroke="#1f1f1f" stroke-width="0.7" stroke-dasharray="3 2.5"/>
<rect x="1581.5" y="358.25" width="45" height="11.5" fill="#faf8f4"/>
<line x1="1581.5" y1="364" x2="1581.5" y2="319" stroke="#1f1f1f" stroke-width="1.4"/><path d="M 1581.5 319 A 45 45 0 0 1 1626.5 364" fill="none" stroke="#1f1f1f" stroke-width="0.7" stroke-dasharray="3 2.5"/>
<rect x="78.25" y="182.75" width="11.5" height="82.5" fill="#faf8f4"/>
<line x1="84" y1="182.75" x2="84" y2="265.25" stroke="#1f1f1f" stroke-width="1"/>
<rect x="1678.25" y="182.75" width="11.5" height="82.5" fill="#faf8f4"/>
<line x1="1684" y1="182.75" x2="1684" y2="265.25" stroke="#1f1f1f" stroke-width="1"/>
<rect x="78.25" y="372.75" width="11.5" height="82.5" fill="#faf8f4"/>
<line x1="84" y1="372.75" x2="84" y2="455.25" stroke="#1f1f1f" stroke-width="1"/>
<rect x="1678.25" y="372.75" width="11.5" height="82.5" fill="#faf8f4"/>
<line x1="1684" y1="372.75" x2="1684" y2="455.25" stroke="#1f1f1f" stroke-width="1"/>
<rect x="381.5" y="458.75" width="45" height="10.5" fill="#faf8f4"/>
<line x1="381.5" y1="464" x2="381.5" y2="509" stroke="#1f1f1f" stroke-width="1.4"/><path d="M 381.5 509 A 45 45 0 0 0 426.5 464" fill="none" stroke="#1f1f1f" stroke-width="0.7" stroke-dasharray="3 2.5"/>
<rect x="1341.5" y="458.75" width="45" height="10.5" fill="#faf8f4"/>
<line x1="1341.5" y1="464" x2="1341.5" y2="509" stroke="#1f1f1f" stroke-width="1.4"/><path d="M 1341.5 509 A 45 45 0 0 0 1386.5 464" fill="none" stroke="#1f1f1f" stroke-width="0.7" stroke-dasharray="3 2.5"/>
<rect x="179" y="740.75" width="130" height="6.5" fill="#faf8f4"/>
<line x1="179" y1="744" x2="309" y2="744" stroke="#1f1f1f" stroke-width="1"/>
<rect x="499" y="740.75" width="130" height="6.5" fill="#faf8f4"/>
<line x1="499" y1="744" x2="629" y2="744" stroke="#1f1f1f" stroke-width="1"/>
<rect x="742.75" y="740.75" width="82.5" height="6.5" fill="#faf8f4"/>
<line x1="742.75" y1="744" x2="825.25" y2="744" stroke="#1f1f1f" stroke-width="1"/>
<rect x="979" y="740.75" width="130" height="6.5" fill="#faf8f4"/>
<line x1="979" y1="744" x2="1109" y2="744" stroke="#1f1f1f" stroke-width="1"/>
<rect x="1299" y="740.75" width="130" height="6.5" fill="#faf8f4"/>
<line x1="1299" y1="744" x2="1429" y2="744" stroke="#1f1f1f" stroke-width="1"/>
<rect x="1562.75" y="740.75" width="82.5" height="6.5" fill="#faf8f4"/>
<line x1="1562.75" y1="744" x2="1645.25" y2="744" stroke="#1f1f1f" stroke-width="1"/>
<rect x="78.25" y="562.75" width="11.5" height="82.5" fill="#faf8f4"/>
<line x1="84" y1="562.75" x2="84" y2="645.25" stroke="#1f1f1f" stroke-width="1"/>
<rect x="1678.25" y="562.75" width="11.5" height="82.5" fill="#faf8f4"/>
<line x1="1684" y1="562.75" x2="1684" y2="645.25" stroke="#1f1f1f" stroke-width="1"/>
<rect x="621.5" y="360.25" width="45" height="7.5" fill="#faf8f4"/>
<line x1="621.5" y1="364" x2="621.5" y2="319" stroke="#1f1f1f" stroke-width="1.4"/><path d="M 621.5 319 A 45 45 0 0 1 666.5 364" fill="none" stroke="#1f1f1f" stroke-width="0.7" stroke-dasharray="3 2.5"/>
<rect x="1344" y="359.5" width="40" height="9" fill="#faf8f4"/>
<line x1="1344" y1="364" x2="1344" y2="324" stroke="#1f1f1f" stroke-width="1.4"/><path d="M 1344 324 A 40 40 0 0 1 1384 364" fill="none" stroke="#1f1f1f" stroke-width="0.7" stroke-dasharray="3 2.5"/>
<text x="884" y="410" text-anchor="middle" font-size="14" fill="#1f1f1f">内廊下</text>
<text x="884" y="427" text-anchor="middle" font-size="10" fill="#8a8171">corridor ・ 74.24㎡</text>
<text x="884" y="441" text-anchor="middle" font-size="8.5" fill="#b3ab9c">/L11/corridor</text>
<text x="164" y="220" text-anchor="middle" font-size="14" fill="#1f1f1f">西階段</text>
<text x="164" y="237" text-anchor="middle" font-size="10" fill="#8a8171">stair ・ 17.92㎡</text>
<text x="164" y="251" text-anchor="middle" font-size="8.5" fill="#b3ab9c">/L11/st2</text>
<text x="1124" y="140" text-anchor="middle" font-size="14" fill="#1f1f1f">EV</text>
<text x="1124" y="157" text-anchor="middle" font-size="10" fill="#8a8171">shaft ・ 7.68㎡</text>
<text x="1124" y="171" text-anchor="middle" font-size="8.5" fill="#b3ab9c">/L11/ev</text>
<text x="1604" y="220" text-anchor="middle" font-size="14" fill="#1f1f1f">東階段</text>
<text x="1604" y="237" text-anchor="middle" font-size="10" fill="#8a8171">stair ・ 17.92㎡</text>
<text x="1604" y="251" text-anchor="middle" font-size="8.5" fill="#b3ab9c">/L11/st1</text>
<text x="484" y="600" text-anchor="middle" font-size="14" fill="#1f1f1f">ペントハウスA</text>
<text x="484" y="617" text-anchor="middle" font-size="10" fill="#8a8171">unit ・ 89.6㎡</text>
<text x="484" y="631" text-anchor="middle" font-size="8.5" fill="#b3ab9c">/L11/PA</text>
<text x="1284" y="600" text-anchor="middle" font-size="14" fill="#1f1f1f">ペントハウスB</text>
<text x="1284" y="617" text-anchor="middle" font-size="10" fill="#8a8171">unit ・ 89.6㎡</text>
<text x="1284" y="631" text-anchor="middle" font-size="8.5" fill="#b3ab9c">/L11/PB</text>
<text x="484" y="777.5" text-anchor="middle" font-size="14" fill="#1f1f1f">バルコニーPA</text>
<text x="484" y="794.5" text-anchor="middle" font-size="10" fill="#8a8171">balcony ・ 24㎡ ・ 半屋外</text>
<text x="484" y="808.5" text-anchor="middle" font-size="8.5" fill="#b3ab9c">/L11/bPA</text>
<text x="1284" y="777.5" text-anchor="middle" font-size="14" fill="#1f1f1f">バルコニーPB</text>
<text x="1284" y="794.5" text-anchor="middle" font-size="10" fill="#8a8171">balcony ・ 24㎡ ・ 半屋外</text>
<text x="1284" y="808.5" text-anchor="middle" font-size="8.5" fill="#b3ab9c">/L11/bPB</text>
<text x="644" y="220" text-anchor="middle" font-size="14" fill="#1f1f1f">共用ルーフテラス</text>
<text x="644" y="237" text-anchor="middle" font-size="10" fill="#8a8171">terrace ・ 89.6㎡ ・ 半屋外</text>
<text x="644" y="251" text-anchor="middle" font-size="8.5" fill="#b3ab9c">/L11/roof</text>
<text x="1364" y="220" text-anchor="middle" font-size="14" fill="#1f1f1f">トランクルーム</text>
<text x="1364" y="237" text-anchor="middle" font-size="10" fill="#8a8171">service ・ 35.84㎡</text>
<text x="1364" y="251" text-anchor="middle" font-size="8.5" fill="#b3ab9c">/L11/store</text>
<text x="22" y="885" font-size="12" fill="#1f1f1f">街角の複合ビル — 低層商業+高層住宅 — L11 平面</text>
<text x="1746" y="885" text-anchor="end" font-size="9" fill="#a49b8a">koyu v0 — 空間から生成 (壁芯・mm)</text>
</svg>
