<svg xmlns="http://www.w3.org/2000/svg" width="568" height="418" viewBox="0 0 568 418" font-family="'Hiragino Sans','Noto Sans JP',sans-serif">
<rect width="568" height="418" fill="#faf8f4"/>
<g transform="translate(9.11 9.27) scale(0.02179)"><path d="M1027.53 171.361L224.461 171.363L224.392 1043.39L361.454 1043.42L361.567 308.689L889.587 308.679L889.581 904.864L566.4 904.876L566.387 524.585L419.01 452.015L419.047 1043.39L1027.51 1043.43L1027.53 171.361Z" fill="#171A18"/><path d="M707 445.022L811.864 445L811.858 613.697C811.831 648.974 812.209 684.759 811.831 720L707.005 719.933L707 445.022Z" fill="#A84940"/></g>
<path d="M 84 334 L 484 334 L 484 84 L 84 84 Z" fill="#f1ebdd"/>
<line x1="84" y1="58" x2="84" y2="360" stroke="#b5aa94" stroke-width="0.8" stroke-dasharray="7 3 1.5 3"/>
<circle cx="84" cy="44" r="11" fill="none" stroke="#b5aa94" stroke-width="1"/>
<text x="84" y="48" text-anchor="middle" font-size="10" fill="#b5aa94">X1</text>
<line x1="484" y1="58" x2="484" y2="360" stroke="#b5aa94" stroke-width="0.8" stroke-dasharray="7 3 1.5 3"/>
<circle cx="484" cy="44" r="11" fill="none" stroke="#b5aa94" stroke-width="1"/>
<text x="484" y="48" text-anchor="middle" font-size="10" fill="#b5aa94">X2</text>
<line x1="58" y1="334" x2="510" y2="334" stroke="#b5aa94" stroke-width="0.8" stroke-dasharray="7 3 1.5 3"/>
<circle cx="44" cy="334" r="11" fill="none" stroke="#b5aa94" stroke-width="1"/>
<text x="44" y="337.5" text-anchor="middle" font-size="10" fill="#b5aa94">Y1</text>
<line x1="58" y1="84" x2="510" y2="84" stroke="#b5aa94" stroke-width="0.8" stroke-dasharray="7 3 1.5 3"/>
<circle cx="44" cy="84" r="11" fill="none" stroke="#b5aa94" stroke-width="1"/>
<text x="44" y="87.5" text-anchor="middle" font-size="10" fill="#b5aa94">Y2</text>
<path d="M 479 329 L 479 89 L 489 89 L 489 329 Z" fill="#1f1f1f"/>
<path d="M 89 79 L 124 79 L 124 89 L 89 89 Z" fill="#1f1f1f"/>
<path d="M 444 79 L 489 79 L 489 89 L 444 89 Z" fill="#1f1f1f"/>
<path d="M 89 329 L 489 329 L 489 339 L 89 339 Z" fill="#1f1f1f"/>
<path d="M 79 339 L 79 79 L 89 79 L 89 339 Z" fill="#1f1f1f"/>
<g class="opening-window">
<path d="M 124 79 L 444 79 M 124 89 L 444 89" fill="none" stroke="#1f1f1f" stroke-width="0.8"/>
</g>
<g class="opening-curtain-wall-mullion">
<line x1="204" y1="89" x2="204" y2="79" stroke="#1f1f1f" stroke-width="0.55"/>
</g>
<g class="opening-curtain-wall-mullion">
<line x1="284" y1="89" x2="284" y2="79" stroke="#1f1f1f" stroke-width="0.55"/>
</g>
<g class="opening-curtain-wall-mullion">
<line x1="364" y1="89" x2="364" y2="79" stroke="#1f1f1f" stroke-width="0.55"/>
</g>
<text x="284" y="205" text-anchor="middle" font-size="14" fill="#1f1f1f">Office</text>
<text x="284" y="222" text-anchor="middle" font-size="10" fill="#8a8171">office · 40 m2</text>
<text x="284" y="236" text-anchor="middle" font-size="8.5" fill="#b3ab9c">/L1/office</text>
<text x="22" y="400" font-size="12" fill="#1f1f1f">Curtain wall symbol — L1 plan</text>
</svg>
