<svg xmlns="http://www.w3.org/2000/svg" width="834" height="478" viewBox="0 0 834 478" font-family="'Hiragino Sans','Noto Sans JP',sans-serif">
<rect width="834" height="478" fill="#faf8f4"/>
<g transform="translate(9.11 9.27) scale(0.02179)"><path d="M1027.53 171.361L224.461 171.363L224.392 1043.39L361.454 1043.42L361.567 308.689L889.587 308.679L889.581 904.864L566.4 904.876L566.387 524.585L419.01 452.015L419.047 1043.39L1027.51 1043.43L1027.53 171.361Z" fill="#171A18"/><path d="M707 445.022L811.864 445L811.858 613.697C811.831 648.974 812.209 684.759 811.831 720L707.005 719.933L707 445.022Z" fill="#A84940"/></g>
<path d="M 516 374 L 698 374 L 698 254 L 516 254 Z" fill="#f1ebdd"/>
<path d="M 516 229 L 698 229 L 698 109 L 516 109 Z" fill="#f1ebdd"/>
<path d="M 334 374 L 516 374 L 516 254 L 334 254 Z" fill="#f1ebdd"/>
<path d="M 334 229 L 516 229 L 516 109 L 334 109 Z" fill="#f1ebdd"/>
<path d="M 132 374 L 334 374 L 334 314 L 132 314 Z" fill="#b8b0a0" stroke="#1f1f1f" stroke-width="0.35" stroke-opacity="0.5"/>
<path d="M 334 374 L 750 374 L 750 314 L 334 314 Z" fill="#b8b0a0" stroke="#1f1f1f" stroke-width="0.35" stroke-opacity="0.5"/>
<path d="M 746 374 L 750 374 L 750 314 L 746 314 Z" fill="#b8b0a0" stroke="#1f1f1f" stroke-width="0.35" stroke-opacity="0.5"/>
<path d="M 334 394 L 748 394 L 748 374 L 334 374 Z" fill="#b8b0a0" stroke="#1f1f1f" stroke-width="0.35" stroke-opacity="0.5"/>
<path d="M 330.25 229 L 701.75 229 L 701.75 84 L 330.25 84 Z" fill="#b8b0a0" stroke="#1f1f1f" stroke-width="0.35" stroke-opacity="0.5"/>
<path d="M 330.25 374 L 474.75 374 L 474.75 229 L 330.25 229 Z" fill="#b8b0a0" stroke="#1f1f1f" stroke-width="0.35" stroke-opacity="0.5"/>
<path d="M 474.75 374 L 557.25 374 L 557.25 329 L 474.75 329 Z" fill="#b8b0a0" stroke="#1f1f1f" stroke-width="0.35" stroke-opacity="0.5"/>
<path d="M 474.75 274 L 557.25 274 L 557.25 229 L 474.75 229 Z" fill="#b8b0a0" stroke="#1f1f1f" stroke-width="0.35" stroke-opacity="0.5"/>
<path d="M 557.25 374 L 701.75 374 L 701.75 229 L 557.25 229 Z" fill="#b8b0a0" stroke="#1f1f1f" stroke-width="0.35" stroke-opacity="0.5"/>
<path d="M 474.75 329 L 557.25 329 L 557.25 274 L 474.75 274 Z" fill="#b9c3c0" stroke="#1f1f1f" stroke-width="0.35" stroke-opacity="0.5"/>
<path d="M 330.25 229 L 337.75 229 L 337.75 84 L 330.25 84 Z" fill="#b8b0a0" stroke="#1f1f1f" stroke-width="0.35" stroke-opacity="0.5"/>
<path d="M 330.25 374 L 337.75 374 L 337.75 229 L 330.25 229 Z" fill="#b8b0a0" stroke="#1f1f1f" stroke-width="0.35" stroke-opacity="0.5"/>
<path d="M 330.25 129 L 337.75 129 L 337.75 84 L 330.25 84 Z" fill="#b8b0a0" stroke="#1f1f1f" stroke-width="0.35" stroke-opacity="0.5"/>
<path d="M 330.25 239 L 337.75 239 L 337.75 129 L 330.25 129 Z" fill="#b9c3c0" stroke="#1f1f1f" stroke-width="0.35" stroke-opacity="0.5"/>
<path d="M 132 374 L 136 374 L 136 314 L 132 314 Z" fill="#b8b0a0" stroke="#1f1f1f" stroke-width="0.35" stroke-opacity="0.5"/>
<path d="M 334 394 L 698 394 L 698 374 L 334 374 Z" fill="#b8b0a0" stroke="#1f1f1f" stroke-width="0.35" stroke-opacity="0.5"/>
<path d="M 334 255.5 L 698 255.5 L 698 254 L 334 254 Z" fill="#b8b0a0" stroke="#1f1f1f" stroke-width="0.35" stroke-opacity="0.5"/>
<path d="M 334 254 L 698 254 L 698 229 L 334 229 Z" fill="#b8b0a0" stroke="#1f1f1f" stroke-width="0.35" stroke-opacity="0.5"/>
<path d="M 334 110.5 L 698 110.5 L 698 109 L 334 109 Z" fill="#b8b0a0" stroke="#1f1f1f" stroke-width="0.35" stroke-opacity="0.5"/>
<path d="M 334 109 L 698 109 L 698 84 L 334 84 Z" fill="#b8b0a0" stroke="#1f1f1f" stroke-width="0.35" stroke-opacity="0.5"/>
<path d="M 518 229 L 587 229 L 587 84 L 518 84 Z" fill="#b8b0a0" stroke="#1f1f1f" stroke-width="0.35" stroke-opacity="0.5"/>
<path d="M 587 129 L 627 129 L 627 84 L 587 84 Z" fill="#b8b0a0" stroke="#1f1f1f" stroke-width="0.35" stroke-opacity="0.5"/>
<path d="M 627 229 L 694.25 229 L 694.25 84 L 627 84 Z" fill="#b8b0a0" stroke="#1f1f1f" stroke-width="0.35" stroke-opacity="0.5"/>
<path d="M 337.75 229 L 518 229 L 518 84 L 337.75 84 Z" fill="#b8b0a0" stroke="#1f1f1f" stroke-width="0.35" stroke-opacity="0.5"/>
<path d="M 694.25 229 L 701.75 229 L 701.75 84 L 694.25 84 Z" fill="#b8b0a0" stroke="#1f1f1f" stroke-width="0.35" stroke-opacity="0.5"/>
<path d="M 330.25 229 L 337.75 229 L 337.75 84 L 330.25 84 Z" fill="#b8b0a0" stroke="#1f1f1f" stroke-width="0.35" stroke-opacity="0.5"/>
<path d="M 513 374 L 587 374 L 587 229 L 513 229 Z" fill="#b8b0a0" stroke="#1f1f1f" stroke-width="0.35" stroke-opacity="0.5"/>
<path d="M 587 274 L 627 274 L 627 229 L 587 229 Z" fill="#b8b0a0" stroke="#1f1f1f" stroke-width="0.35" stroke-opacity="0.5"/>
<path d="M 627 374 L 694.25 374 L 694.25 229 L 627 229 Z" fill="#b8b0a0" stroke="#1f1f1f" stroke-width="0.35" stroke-opacity="0.5"/>
<path d="M 694.25 374 L 701.75 374 L 701.75 229 L 694.25 229 Z" fill="#b8b0a0" stroke="#1f1f1f" stroke-width="0.35" stroke-opacity="0.5"/>
<path d="M 587 229 L 627 229 L 627 129 L 587 129 Z" fill="#b9c3c0" stroke="#1f1f1f" stroke-width="0.35" stroke-opacity="0.5"/>
<path d="M 587 374 L 627 374 L 627 274 L 587 274 Z" fill="#b9c3c0" stroke="#1f1f1f" stroke-width="0.35" stroke-opacity="0.5"/>
<path d="M 132 374 L 136 374 L 136 314 L 132 314 Z" fill="#b9c3c0" stroke="#1f1f1f" stroke-width="0.35" stroke-opacity="0.5"/>
<path d="M 330.25 229 L 337.75 229 L 337.75 84 L 330.25 84 Z" fill="#b8b0a0" stroke="#1f1f1f" stroke-width="0.35" stroke-opacity="0.5"/>
<line x1="106" y1="374" x2="776" y2="374" stroke="#b5aa94" stroke-width="0.8" stroke-dasharray="7 3 1.5 3"/>
<text x="98" y="370" text-anchor="end" font-size="10" fill="#b5aa94">L1</text>
<text x="98" y="383" text-anchor="end" font-size="8.5" fill="#b3ab9c">+0</text>
<line x1="106" y1="229" x2="776" y2="229" stroke="#b5aa94" stroke-width="0.8" stroke-dasharray="7 3 1.5 3"/>
<text x="98" y="225" text-anchor="end" font-size="10" fill="#b5aa94">L2</text>
<text x="98" y="238" text-anchor="end" font-size="8.5" fill="#b3ab9c">+2900</text>
<line x1="106" y1="84" x2="776" y2="84" stroke="#b5aa94" stroke-width="0.8" stroke-dasharray="7 3 1.5 3"/>
<text x="98" y="80" text-anchor="end" font-size="10" fill="#b5aa94">R</text>
<text x="98" y="93" text-anchor="end" font-size="8.5" fill="#b3ab9c">+5800</text>
<line x1="0" y1="374" x2="834" y2="374" stroke="#1f1f1f" stroke-width="1.2"/>
<text x="776" y="388" text-anchor="end" font-size="8" fill="#8a8171">z 0</text>
<line x1="334" y1="58" x2="334" y2="420" stroke="#b5aa94" stroke-width="0.8" stroke-dasharray="7 3 1.5 3"/>
<circle cx="334" cy="44" r="11" fill="none" stroke="#b5aa94" stroke-width="1"/>
<text x="334" y="48" text-anchor="middle" font-size="10" fill="#b5aa94">Y1</text>
<line x1="516" y1="58" x2="516" y2="420" stroke="#b5aa94" stroke-width="0.8" stroke-dasharray="7 3 1.5 3"/>
<circle cx="516" cy="44" r="11" fill="none" stroke="#b5aa94" stroke-width="1"/>
<text x="516" y="48" text-anchor="middle" font-size="10" fill="#b5aa94">Y2</text>
<line x1="698" y1="58" x2="698" y2="420" stroke="#b5aa94" stroke-width="0.8" stroke-dasharray="7 3 1.5 3"/>
<circle cx="698" cy="44" r="11" fill="none" stroke="#b5aa94" stroke-width="1"/>
<text x="698" y="48" text-anchor="middle" font-size="10" fill="#b5aa94">Y3</text>
<path d="M 513 374 L 519 374 L 519 229 L 513 229 Z" fill="#1f1f1f"/>
<path d="M 694.25 374 L 701.75 374 L 701.75 229 L 694.25 229 Z" fill="#1f1f1f"/>
<path d="M 514 229 L 518 229 L 518 174 L 514 174 Z" fill="#1f1f1f"/>
<path d="M 694.25 229 L 701.75 229 L 701.75 84 L 694.25 84 Z" fill="#1f1f1f"/>
<path d="M 330.25 274 L 337.75 274 L 337.75 229 L 330.25 229 Z" fill="#1f1f1f"/>
<path d="M 330.25 229 L 337.75 229 L 337.75 184 L 330.25 184 Z" fill="#1f1f1f"/>
<path d="M 330.25 129 L 337.75 129 L 337.75 84 L 330.25 84 Z" fill="#1f1f1f"/>
<path d="M 746 374 L 750 374 L 750 314 L 746 314 Z" fill="#1f1f1f"/>
<path d="M 132 374 L 136 374 L 136 314 L 132 314 Z" fill="#1f1f1f"/>
<path d="M 516 394 L 698 394 L 698 374 L 516 374 Z" fill="#1f1f1f"/>
<path d="M 516 255.5 L 698 255.5 L 698 254 L 516 254 Z" fill="#1f1f1f"/>
<path d="M 334 394 L 516 394 L 516 374 L 334 374 Z" fill="#1f1f1f"/>
<path d="M 334 255.5 L 516 255.5 L 516 254 L 334 254 Z" fill="#1f1f1f"/>
<path d="M 134 394 L 334 394 L 334 374 L 134 374 Z" fill="#1f1f1f"/>
<path d="M 698 394 L 748 394 L 748 374 L 698 374 Z" fill="#1f1f1f"/>
<path d="M 516 254 L 698 254 L 698 229 L 516 229 Z" fill="#1f1f1f"/>
<path d="M 516 110.5 L 698 110.5 L 698 109 L 516 109 Z" fill="#1f1f1f"/>
<path d="M 516 109 L 698 109 L 698 84 L 516 84 Z" fill="#1f1f1f"/>
<path d="M 334 109 L 516 109 L 516 84 L 334 84 Z" fill="#1f1f1f"/>
<path d="M 330.25 384 L 337.75 384 L 337.75 274 L 330.25 274 Z" fill="#b9c3c0" stroke="#1f1f1f" stroke-width="1"/>
<path d="M 330.25 184 L 337.75 184 L 337.75 129 L 330.25 129 Z" fill="#b9c3c0" stroke="#1f1f1f" stroke-width="1"/>
<text x="607" y="314" text-anchor="middle" font-size="12" fill="#1f1f1f">玄関・階段</text>
<text x="607" y="328" text-anchor="middle" font-size="9" fill="#8a8171">h 2400</text>
<text x="607" y="169" text-anchor="middle" font-size="12" fill="#1f1f1f">2階ホール</text>
<text x="607" y="183" text-anchor="middle" font-size="9" fill="#8a8171">h 2400</text>
<text x="425" y="314" text-anchor="middle" font-size="12" fill="#1f1f1f">LDK</text>
<text x="425" y="328" text-anchor="middle" font-size="9" fill="#8a8171">h 2400</text>
<text x="425" y="169" text-anchor="middle" font-size="12" fill="#1f1f1f">リビング上部</text>
<text x="425" y="183" text-anchor="middle" font-size="9" fill="#8a8171">h 2400</text>
<text x="70" y="460" font-size="12" fill="#1f1f1f">小さな戸建住宅 — section at X2+900 looking W</text>
</svg>
