<svg xmlns="http://www.w3.org/2000/svg" width="532" height="532" viewBox="0 0 532 532" font-family="'Hiragino Sans','Noto Sans JP',sans-serif">
<rect width="532" height="532" fill="#faf8f4"/>
<rect x="84" y="84" width="182" height="364" fill="#f1ebdd"/>
<rect x="266" y="266" width="182" height="182" fill="#f1ebdd"/>
<rect x="266" y="84" width="182" height="182" fill="#f1ebdd"/>
<line x1="84" y1="58" x2="84" y2="474" stroke="#b5aa94" stroke-width="0.8" stroke-dasharray="7 3 1.5 3"/>
<circle cx="84" cy="44" r="11" fill="none" stroke="#b5aa94" stroke-width="1"/>
<text x="84" y="48" text-anchor="middle" font-size="10" fill="#b5aa94">X1</text>
<line x1="266" y1="58" x2="266" y2="474" stroke="#b5aa94" stroke-width="0.8" stroke-dasharray="7 3 1.5 3"/>
<circle cx="266" cy="44" r="11" fill="none" stroke="#b5aa94" stroke-width="1"/>
<text x="266" y="48" text-anchor="middle" font-size="10" fill="#b5aa94">X2</text>
<line x1="448" y1="58" x2="448" y2="474" stroke="#b5aa94" stroke-width="0.8" stroke-dasharray="7 3 1.5 3"/>
<circle cx="448" cy="44" r="11" fill="none" stroke="#b5aa94" stroke-width="1"/>
<text x="448" y="48" text-anchor="middle" font-size="10" fill="#b5aa94">X3</text>
<line x1="58" y1="448" x2="474" y2="448" stroke="#b5aa94" stroke-width="0.8" stroke-dasharray="7 3 1.5 3"/>
<circle cx="44" cy="448" r="11" fill="none" stroke="#b5aa94" stroke-width="1"/>
<text x="44" y="451.5" text-anchor="middle" font-size="10" fill="#b5aa94">Y1</text>
<line x1="58" y1="266" x2="474" y2="266" stroke="#b5aa94" stroke-width="0.8" stroke-dasharray="7 3 1.5 3"/>
<circle cx="44" cy="266" r="11" fill="none" stroke="#b5aa94" stroke-width="1"/>
<text x="44" y="269.5" text-anchor="middle" font-size="10" fill="#b5aa94">Y2</text>
<line x1="58" y1="84" x2="474" y2="84" stroke="#b5aa94" stroke-width="0.8" stroke-dasharray="7 3 1.5 3"/>
<circle cx="44" cy="84" r="11" fill="none" stroke="#b5aa94" stroke-width="1"/>
<text x="44" y="87.5" text-anchor="middle" font-size="10" fill="#b5aa94">Y3</text>
<rect x="263" y="84" width="6" height="182" fill="#1f1f1f"/>
<rect x="266" y="263" width="182" height="6" fill="#1f1f1f"/>
<rect x="84" y="80.25" width="182" height="7.5" fill="#1f1f1f"/>
<rect x="84" y="444.25" width="364" height="7.5" fill="#1f1f1f"/>
<rect x="80.25" y="84" width="7.5" height="364" fill="#1f1f1f"/>
<rect x="444.25" y="266" width="7.5" height="182" fill="#1f1f1f"/>
<rect x="266" y="80.25" width="182" height="7.5" fill="#1f1f1f"/>
<rect x="444.25" y="84" width="7.5" height="182" fill="#1f1f1f"/>
<rect x="262.25" y="155" width="7.5" height="40" fill="#faf8f4"/>
<line x1="266" y1="195" x2="306" y2="195" stroke="#1f1f1f" stroke-width="1.4"/><path d="M 306 195 A 40 40 0 0 0 266 155" fill="none" stroke="#1f1f1f" stroke-width="0.7" stroke-dasharray="3 2.5"/>
<rect x="201" y="443.5" width="130" height="9" fill="#faf8f4"/>
<line x1="201" y1="448" x2="331" y2="448" stroke="#1f1f1f" stroke-width="1"/>
<rect x="79.5" y="224.75" width="9" height="82.5" fill="#faf8f4"/>
<line x1="84" y1="224.75" x2="84" y2="307.25" stroke="#1f1f1f" stroke-width="1"/>
<rect x="443.5" y="152.5" width="9" height="45" fill="#faf8f4"/>
<line x1="448" y1="197.5" x2="403" y2="197.5" stroke="#1f1f1f" stroke-width="1.4"/><path d="M 403 197.5 A 45 45 0 0 1 448 152.5" fill="none" stroke="#1f1f1f" stroke-width="0.7" stroke-dasharray="3 2.5"/>
<text x="175" y="262" text-anchor="middle" font-size="14" fill="#1f1f1f">LDK</text>
<text x="175" y="279" text-anchor="middle" font-size="10" fill="#8a8171">ldk ・ 39.75㎡</text>
<text x="175" y="293" text-anchor="middle" font-size="8.5" fill="#b3ab9c">/home/ldk</text>
<text x="357" y="171" text-anchor="middle" font-size="14" fill="#1f1f1f">玄関・階段</text>
<text x="357" y="188" text-anchor="middle" font-size="10" fill="#8a8171">hall ・ 13.25㎡</text>
<text x="357" y="202" text-anchor="middle" font-size="8.5" fill="#b3ab9c">/home/hall1</text>
<rect x="266" y="266" width="182" height="182" fill="none" stroke="#b3ab9c" stroke-width="0.8" stroke-dasharray="6 4"/>
<text x="357" y="397" text-anchor="middle" font-size="9" fill="#b3ab9c">上部吹抜け</text>
<text x="22" y="514" font-size="12" fill="#1f1f1f">小さな戸建住宅 — L1 平面</text>
<text x="510" y="514" text-anchor="end" font-size="9" fill="#a49b8a">ifcxs v0 — 空間から生成 (壁芯・mm)</text>
</svg>
