<svg xmlns="http://www.w3.org/2000/svg" width="682" height="782" viewBox="0 0 682 782" font-family="'Hiragino Sans','Noto Sans JP',sans-serif">
<rect width="682" height="782" fill="#faf8f4"/>
<rect x="84" y="498" width="514" height="200" fill="#f8f5ec"/>
<rect x="84" y="84" width="75" height="414" fill="#f8f5ec"/>
<rect x="523" y="84" width="75" height="414" fill="#f8f5ec"/>
<rect x="159" y="84" width="364" height="50" fill="#f8f5ec"/>
<rect x="159" y="134" width="182" height="364" fill="#f1ebdd"/>
<rect x="341" y="316" width="182" height="182" fill="#f1ebdd"/>
<rect x="341" y="134" width="182" height="182" fill="#f1ebdd"/>
<line x1="159" y1="58" x2="159" y2="724" stroke="#b5aa94" stroke-width="0.8" stroke-dasharray="7 3 1.5 3"/>
<circle cx="159" cy="44" r="11" fill="none" stroke="#b5aa94" stroke-width="1"/>
<text x="159" y="48" text-anchor="middle" font-size="10" fill="#b5aa94">X1</text>
<line x1="341" y1="58" x2="341" y2="724" stroke="#b5aa94" stroke-width="0.8" stroke-dasharray="7 3 1.5 3"/>
<circle cx="341" cy="44" r="11" fill="none" stroke="#b5aa94" stroke-width="1"/>
<text x="341" y="48" text-anchor="middle" font-size="10" fill="#b5aa94">X2</text>
<line x1="523" y1="58" x2="523" y2="724" stroke="#b5aa94" stroke-width="0.8" stroke-dasharray="7 3 1.5 3"/>
<circle cx="523" cy="44" r="11" fill="none" stroke="#b5aa94" stroke-width="1"/>
<text x="523" y="48" text-anchor="middle" font-size="10" fill="#b5aa94">X3</text>
<line x1="58" y1="498" x2="624" y2="498" stroke="#b5aa94" stroke-width="0.8" stroke-dasharray="7 3 1.5 3"/>
<circle cx="44" cy="498" r="11" fill="none" stroke="#b5aa94" stroke-width="1"/>
<text x="44" y="501.5" text-anchor="middle" font-size="10" fill="#b5aa94">Y1</text>
<line x1="58" y1="316" x2="624" y2="316" stroke="#b5aa94" stroke-width="0.8" stroke-dasharray="7 3 1.5 3"/>
<circle cx="44" cy="316" r="11" fill="none" stroke="#b5aa94" stroke-width="1"/>
<text x="44" y="319.5" text-anchor="middle" font-size="10" fill="#b5aa94">Y2</text>
<line x1="58" y1="134" x2="624" y2="134" stroke="#b5aa94" stroke-width="0.8" stroke-dasharray="7 3 1.5 3"/>
<circle cx="44" cy="134" r="11" fill="none" stroke="#b5aa94" stroke-width="1"/>
<text x="44" y="137.5" text-anchor="middle" font-size="10" fill="#b5aa94">Y3</text>
<rect x="338" y="134" width="6" height="182" fill="#1f1f1f"/>
<rect x="341" y="313" width="182" height="6" fill="#1f1f1f"/>
<rect x="159" y="494.25" width="364" height="7.5" fill="#1f1f1f"/>
<rect x="155.25" y="134" width="7.5" height="364" fill="#1f1f1f"/>
<rect x="519.25" y="316" width="7.5" height="182" fill="#1f1f1f"/>
<rect x="159" y="130.25" width="182" height="7.5" fill="#1f1f1f"/>
<rect x="519.25" y="134" width="7.5" height="182" fill="#1f1f1f"/>
<rect x="341" y="130.25" width="182" height="7.5" fill="#1f1f1f"/>
<line x1="84" y1="498" x2="159" y2="498" stroke="#b3ab9c" stroke-width="1" stroke-dasharray="6 4"/>
<line x1="523" y1="498" x2="598" y2="498" stroke="#b3ab9c" stroke-width="1" stroke-dasharray="6 4"/>
<line x1="159" y1="134" x2="159" y2="84" stroke="#b3ab9c" stroke-width="1" stroke-dasharray="6 4"/>
<line x1="523" y1="134" x2="523" y2="84" stroke="#b3ab9c" stroke-width="1" stroke-dasharray="6 4"/>
<line x1="84" y1="698" x2="598" y2="698" stroke="#1f1f1f" stroke-width="1.4"/>
<rect x="318.5" y="695" width="45" height="6" fill="#faf8f4"/>
<line x1="318.5" y1="698" x2="318.5" y2="653" stroke="#1f1f1f" stroke-width="1.4"/><path d="M 318.5 653 A 45 45 0 0 1 363.5 698" fill="none" stroke="#1f1f1f" stroke-width="0.7" stroke-dasharray="3 2.5"/>
<line x1="84" y1="698" x2="84" y2="498" stroke="#1f1f1f" stroke-width="1.4"/>
<line x1="598" y1="698" x2="598" y2="498" stroke="#1f1f1f" stroke-width="1.4"/>
<line x1="84" y1="498" x2="84" y2="84" stroke="#1f1f1f" stroke-width="1.4"/>
<line x1="84" y1="84" x2="159" y2="84" stroke="#1f1f1f" stroke-width="1.4"/>
<line x1="598" y1="498" x2="598" y2="84" stroke="#1f1f1f" stroke-width="1.4"/>
<line x1="523" y1="84" x2="598" y2="84" stroke="#1f1f1f" stroke-width="1.4"/>
<line x1="159" y1="84" x2="523" y2="84" stroke="#1f1f1f" stroke-width="1.4"/>
<rect x="337.25" y="205" width="7.5" height="40" fill="#faf8f4"/>
<line x1="341" y1="245" x2="381" y2="245" stroke="#1f1f1f" stroke-width="1.4"/><path d="M 381 245 A 40 40 0 0 0 341 205" fill="none" stroke="#1f1f1f" stroke-width="0.7" stroke-dasharray="3 2.5"/>
<rect x="276" y="493.5" width="130" height="9" fill="#faf8f4"/>
<line x1="276" y1="498" x2="406" y2="498" stroke="#1f1f1f" stroke-width="1"/>
<rect x="154.5" y="274.75" width="9" height="82.5" fill="#faf8f4"/>
<line x1="159" y1="274.75" x2="159" y2="357.25" stroke="#1f1f1f" stroke-width="1"/>
<rect x="518.5" y="202.5" width="9" height="45" fill="#faf8f4"/>
<line x1="523" y1="247.5" x2="478" y2="247.5" stroke="#1f1f1f" stroke-width="1.4"/><path d="M 478 247.5 A 45 45 0 0 1 523 202.5" fill="none" stroke="#1f1f1f" stroke-width="0.7" stroke-dasharray="3 2.5"/>
<text x="341" y="594" text-anchor="middle" font-size="14" fill="#1f1f1f">南庭</text>
<text x="341" y="611" text-anchor="middle" font-size="10" fill="#8a8171">garden ・ 41.12㎡ ・ 半屋外</text>
<text x="341" y="625" text-anchor="middle" font-size="8.5" fill="#b3ab9c">/site/garden</text>
<text x="121.5" y="287" text-anchor="middle" font-size="14" fill="#1f1f1f">西側通路</text>
<text x="121.5" y="304" text-anchor="middle" font-size="10" fill="#8a8171">yard ・ 12.42㎡ ・ 半屋外</text>
<text x="121.5" y="318" text-anchor="middle" font-size="8.5" fill="#b3ab9c">/site/west</text>
<text x="560.5" y="287" text-anchor="middle" font-size="14" fill="#1f1f1f">東側通路</text>
<text x="560.5" y="304" text-anchor="middle" font-size="10" fill="#8a8171">yard ・ 12.42㎡ ・ 半屋外</text>
<text x="560.5" y="318" text-anchor="middle" font-size="8.5" fill="#b3ab9c">/site/east</text>
<text x="341" y="105" text-anchor="middle" font-size="14" fill="#1f1f1f">北側通路</text>
<text x="341" y="122" text-anchor="middle" font-size="10" fill="#8a8171">yard ・ 7.28㎡ ・ 半屋外</text>
<text x="341" y="136" text-anchor="middle" font-size="8.5" fill="#b3ab9c">/site/north</text>
<text x="250" y="312" text-anchor="middle" font-size="14" fill="#1f1f1f">LDK</text>
<text x="250" y="329" text-anchor="middle" font-size="10" fill="#8a8171">ldk ・ 39.75㎡</text>
<text x="250" y="343" text-anchor="middle" font-size="8.5" fill="#b3ab9c">/home/ldk</text>
<text x="432" y="221" text-anchor="middle" font-size="14" fill="#1f1f1f">玄関・階段</text>
<text x="432" y="238" text-anchor="middle" font-size="10" fill="#8a8171">hall ・ 13.25㎡</text>
<text x="432" y="252" text-anchor="middle" font-size="8.5" fill="#b3ab9c">/home/hall1</text>
<rect x="341" y="316" width="182" height="182" fill="none" stroke="#b3ab9c" stroke-width="0.8" stroke-dasharray="6 4"/>
<text x="432" y="447" text-anchor="middle" font-size="9" fill="#b3ab9c">上部吹抜け</text>
<text x="22" y="764" font-size="12" fill="#1f1f1f">小さな戸建住宅 — L1 平面</text>
<text x="660" y="764" text-anchor="end" font-size="9" fill="#a49b8a">ifcxs v0 — 空間から生成 (壁芯・mm)</text>
</svg>
