<svg xmlns="http://www.w3.org/2000/svg" width="1168" height="858" viewBox="0 0 1168 858" font-family="'Hiragino Sans','Noto Sans JP',sans-serif">
<rect width="1168" height="858" fill="#faf8f4"/>
<path d="M 214 774 L 794 774 L 794 474 L 214 474 Z" fill="#f1ebdd"/>
<path d="M 794 774 L 1084 774 L 1084 474 L 794 474 Z" fill="#f1ebdd"/>
<path d="M 214 474 L 1084 474 L 1084 384 L 214 384 Z" fill="#f1ebdd"/>
<path d="M 214 384 L 504 384 L 504 84 L 214 84 Z" fill="#f8f5ec"/>
<path d="M 634 384 L 1084 384 L 1084 84 L 634 84 Z" fill="#f1ebdd"/>
<path d="M 504 384 L 634 384 L 634 254 L 504 254 Z" fill="#f1ebdd"/>
<path d="M 504 254 L 634 254 L 634 84 L 504 84 Z" fill="#f1ebdd"/>
<path d="M 84 504 L 214 504 L 214 384 L 84 384 Z" fill="#f8f5ec"/>
<line x1="214" y1="58" x2="214" y2="800" stroke="#b5aa94" stroke-width="0.8" stroke-dasharray="7 3 1.5 3"/>
<circle cx="214" cy="44" r="11" fill="none" stroke="#b5aa94" stroke-width="1"/>
<text x="214" y="48" text-anchor="middle" font-size="10" fill="#b5aa94">X1</text>
<line x1="504" y1="58" x2="504" y2="800" stroke="#b5aa94" stroke-width="0.8" stroke-dasharray="7 3 1.5 3"/>
<circle cx="504" cy="44" r="11" fill="none" stroke="#b5aa94" stroke-width="1"/>
<text x="504" y="48" text-anchor="middle" font-size="10" fill="#b5aa94">X2</text>
<line x1="794" y1="58" x2="794" y2="800" stroke="#b5aa94" stroke-width="0.8" stroke-dasharray="7 3 1.5 3"/>
<circle cx="794" cy="44" r="11" fill="none" stroke="#b5aa94" stroke-width="1"/>
<text x="794" y="48" text-anchor="middle" font-size="10" fill="#b5aa94">X3</text>
<line x1="1084" y1="58" x2="1084" y2="800" stroke="#b5aa94" stroke-width="0.8" stroke-dasharray="7 3 1.5 3"/>
<circle cx="1084" cy="44" r="11" fill="none" stroke="#b5aa94" stroke-width="1"/>
<text x="1084" y="48" text-anchor="middle" font-size="10" fill="#b5aa94">X4</text>
<line x1="58" y1="774" x2="1110" y2="774" stroke="#b5aa94" stroke-width="0.8" stroke-dasharray="7 3 1.5 3"/>
<circle cx="44" cy="774" r="11" fill="none" stroke="#b5aa94" stroke-width="1"/>
<text x="44" y="777.5" text-anchor="middle" font-size="10" fill="#b5aa94">Y1</text>
<line x1="58" y1="474" x2="1110" y2="474" stroke="#b5aa94" stroke-width="0.8" stroke-dasharray="7 3 1.5 3"/>
<circle cx="44" cy="474" r="11" fill="none" stroke="#b5aa94" stroke-width="1"/>
<text x="44" y="477.5" text-anchor="middle" font-size="10" fill="#b5aa94">Y2</text>
<line x1="58" y1="384" x2="1110" y2="384" stroke="#b5aa94" stroke-width="0.8" stroke-dasharray="7 3 1.5 3"/>
<circle cx="44" cy="384" r="11" fill="none" stroke="#b5aa94" stroke-width="1"/>
<text x="44" y="387.5" text-anchor="middle" font-size="10" fill="#b5aa94">Y3</text>
<line x1="58" y1="84" x2="1110" y2="84" stroke="#b5aa94" stroke-width="0.8" stroke-dasharray="7 3 1.5 3"/>
<circle cx="44" cy="84" r="11" fill="none" stroke="#b5aa94" stroke-width="1"/>
<text x="44" y="87.5" text-anchor="middle" font-size="10" fill="#b5aa94">Y4</text>
<path d="M 789.5 774 L 789.5 474 L 798.5 474 L 798.5 774 Z" fill="#1f1f1f"/>
<path d="M 214 469.5 L 481.5 469.5 L 481.5 478.5 L 214 478.5 Z" fill="#1f1f1f"/>
<path d="M 526.5 469.5 L 794 469.5 L 794 478.5 L 526.5 478.5 Z" fill="#1f1f1f"/>
<path d="M 209.5 504 L 209.5 474 L 218.5 474 L 218.5 504 Z" fill="#1f1f1f"/>
<path d="M 214 769.5 L 294 769.5 L 294 778.5 L 214 778.5 Z" fill="#1f1f1f"/>
<path d="M 424 769.5 L 584 769.5 L 584 778.5 L 424 778.5 Z" fill="#1f1f1f"/>
<path d="M 714 769.5 L 794 769.5 L 794 778.5 L 714 778.5 Z" fill="#1f1f1f"/>
<path d="M 209.5 774 L 209.5 504 L 218.5 504 L 218.5 774 Z" fill="#1f1f1f"/>
<path d="M 794 469.5 L 916.5 469.5 L 916.5 478.5 L 794 478.5 Z" fill="#1f1f1f"/>
<path d="M 961.5 469.5 L 1084 469.5 L 1084 478.5 L 961.5 478.5 Z" fill="#1f1f1f"/>
<path d="M 794 769.5 L 874 769.5 L 874 778.5 L 794 778.5 Z" fill="#1f1f1f"/>
<path d="M 1004 769.5 L 1084 769.5 L 1084 778.5 L 1004 778.5 Z" fill="#1f1f1f"/>
<path d="M 1079.5 774 L 1079.5 474 L 1088.5 474 L 1088.5 774 Z" fill="#1f1f1f"/>
<path d="M 634 379.5 L 836.5 379.5 L 836.5 388.5 L 634 388.5 Z" fill="#1f1f1f"/>
<path d="M 881.5 379.5 L 1084 379.5 L 1084 388.5 L 881.5 388.5 Z" fill="#1f1f1f"/>
<path d="M 629 384 L 629 254 L 639 254 L 639 384 Z" fill="#1f1f1f"/>
<path d="M 631 254 L 631 84 L 637 84 L 637 254 Z" fill="#1f1f1f"/>
<path d="M 1079.5 384 L 1079.5 275.25 L 1088.5 275.25 L 1088.5 384 Z" fill="#1f1f1f"/>
<path d="M 1079.5 192.75 L 1079.5 84 L 1088.5 84 L 1088.5 192.75 Z" fill="#1f1f1f"/>
<path d="M 634 79.5 L 794 79.5 L 794 88.5 L 634 88.5 Z" fill="#1f1f1f"/>
<path d="M 924 79.5 L 1084 79.5 L 1084 88.5 L 924 88.5 Z" fill="#1f1f1f"/>
<path d="M 504 379 L 546.5 379 L 546.5 389 L 504 389 Z" fill="#1f1f1f"/>
<path d="M 591.5 379 L 634 379 L 634 389 L 591.5 389 Z" fill="#1f1f1f"/>
<path d="M 209.5 474 L 209.5 451.5 L 218.5 451.5 L 218.5 474 Z" fill="#1f1f1f"/>
<path d="M 209.5 406.5 L 209.5 384 L 218.5 384 L 218.5 406.5 Z" fill="#1f1f1f"/>
<path d="M 214 379.5 L 336.5 379.5 L 336.5 388.5 L 214 388.5 Z" fill="#1f1f1f"/>
<path d="M 381.5 379.5 L 504 379.5 L 504 388.5 L 381.5 388.5 Z" fill="#1f1f1f"/>
<path d="M 1079.5 474 L 1079.5 459 L 1088.5 459 L 1088.5 474 Z" fill="#1f1f1f"/>
<path d="M 1079.5 399 L 1079.5 384 L 1088.5 384 L 1088.5 399 Z" fill="#1f1f1f"/>
<path d="M 504 249 L 634 249 L 634 259 L 504 259 Z" fill="#1f1f1f"/>
<path d="M 499 384 L 499 254 L 509 254 L 509 384 Z" fill="#1f1f1f"/>
<path d="M 499.5 254 L 499.5 84 L 508.5 84 L 508.5 254 Z" fill="#1f1f1f"/>
<path d="M 504 79.5 L 634 79.5 L 634 88.5 L 504 88.5 Z" fill="#1f1f1f"/>
<line x1="84" y1="504" x2="214" y2="504" stroke="#1f1f1f" stroke-width="1.4"/>
<line x1="84" y1="384" x2="214" y2="384" stroke="#1f1f1f" stroke-width="1.4"/>
<line x1="84" y1="504" x2="84" y2="384" stroke="#1f1f1f" stroke-width="1.4"/>
<line x1="214" y1="84" x2="504" y2="84" stroke="#1f1f1f" stroke-width="1.4"/>
<line x1="214" y1="384" x2="214" y2="84" stroke="#1f1f1f" stroke-width="1.4"/>
<line x1="481.5" y1="474" x2="481.5" y2="519" stroke="#1f1f1f" stroke-width="1.4"/>
<path d="M 481.5 519 A 45 45 0 0 0 526.5 474" fill="none" stroke="#1f1f1f" stroke-width="0.7" stroke-dasharray="3 2.5"/>
<line x1="294" y1="774" x2="424" y2="774" stroke="#1f1f1f" stroke-width="1"/>
<line x1="584" y1="774" x2="714" y2="774" stroke="#1f1f1f" stroke-width="1"/>
<line x1="916.5" y1="474" x2="916.5" y2="519" stroke="#1f1f1f" stroke-width="1.4"/>
<path d="M 916.5 519 A 45 45 0 0 0 961.5 474" fill="none" stroke="#1f1f1f" stroke-width="0.7" stroke-dasharray="3 2.5"/>
<line x1="874" y1="774" x2="1004" y2="774" stroke="#1f1f1f" stroke-width="1"/>
<line x1="836.5" y1="384" x2="836.5" y2="339" stroke="#1f1f1f" stroke-width="1.4"/>
<path d="M 836.5 339 A 45 45 0 0 1 881.5 384" fill="none" stroke="#1f1f1f" stroke-width="0.7" stroke-dasharray="3 2.5"/>
<line x1="1084" y1="275.25" x2="1084" y2="192.75" stroke="#1f1f1f" stroke-width="1"/>
<line x1="794" y1="84" x2="924" y2="84" stroke="#1f1f1f" stroke-width="1"/>
<line x1="546.5" y1="384" x2="546.5" y2="429" stroke="#1f1f1f" stroke-width="1.4"/>
<path d="M 546.5 429 A 45 45 0 0 0 591.5 384" fill="none" stroke="#1f1f1f" stroke-width="0.7" stroke-dasharray="3 2.5"/>
<line x1="214" y1="451.5" x2="259" y2="451.5" stroke="#1f1f1f" stroke-width="1.4"/>
<path d="M 259 451.5 A 45 45 0 0 0 214 406.5" fill="none" stroke="#1f1f1f" stroke-width="0.7" stroke-dasharray="3 2.5"/>
<line x1="336.5" y1="384" x2="336.5" y2="429" stroke="#1f1f1f" stroke-width="1.4"/>
<path d="M 336.5 429 A 45 45 0 0 0 381.5 384" fill="none" stroke="#1f1f1f" stroke-width="0.7" stroke-dasharray="3 2.5"/>
<line x1="1084" y1="459" x2="1084" y2="399" stroke="#1f1f1f" stroke-width="1"/>
<text x="504" y="620" text-anchor="middle" font-size="14" fill="#1f1f1f">PH-A</text>
<text x="504" y="637" text-anchor="middle" font-size="10" fill="#8a8171">unit · 69.6 m2</text>
<text x="504" y="651" text-anchor="middle" font-size="8.5" fill="#b3ab9c">/L10/1001</text>
<text x="939" y="620" text-anchor="middle" font-size="14" fill="#1f1f1f">PH-B</text>
<text x="939" y="637" text-anchor="middle" font-size="10" fill="#8a8171">unit · 34.8 m2</text>
<text x="939" y="651" text-anchor="middle" font-size="8.5" fill="#b3ab9c">/L10/1002</text>
<text x="649" y="425" text-anchor="middle" font-size="14" fill="#1f1f1f">内廊下</text>
<text x="649" y="442" text-anchor="middle" font-size="10" fill="#8a8171">corridor · 31.32 m2</text>
<text x="649" y="456" text-anchor="middle" font-size="8.5" fill="#b3ab9c">/L10/corridor</text>
<text x="359" y="230" text-anchor="middle" font-size="14" fill="#1f1f1f">ルーフテラス</text>
<text x="359" y="247" text-anchor="middle" font-size="10" fill="#8a8171">terrace · 34.8 m2 · semi-outdoor</text>
<text x="359" y="261" text-anchor="middle" font-size="8.5" fill="#b3ab9c">/L10/terrace</text>
<text x="859" y="230" text-anchor="middle" font-size="14" fill="#1f1f1f">PH-C</text>
<text x="859" y="247" text-anchor="middle" font-size="10" fill="#8a8171">unit · 54 m2</text>
<text x="859" y="261" text-anchor="middle" font-size="8.5" fill="#b3ab9c">/L10/1003</text>
<text x="569" y="315" text-anchor="middle" font-size="14" fill="#1f1f1f">EV</text>
<text x="569" y="332" text-anchor="middle" font-size="10" fill="#8a8171">ev · 6.76 m2</text>
<text x="569" y="346" text-anchor="middle" font-size="8.5" fill="#b3ab9c">/L10/ev</text>
<text x="569" y="165" text-anchor="middle" font-size="14" fill="#1f1f1f">PS・MB</text>
<text x="569" y="182" text-anchor="middle" font-size="10" fill="#8a8171">shaft · 8.84 m2</text>
<text x="569" y="196" text-anchor="middle" font-size="8.5" fill="#b3ab9c">/L10/ps</text>
<text x="149" y="440" text-anchor="middle" font-size="14" fill="#1f1f1f">屋外階段</text>
<text x="149" y="457" text-anchor="middle" font-size="10" fill="#8a8171">stair · 6.24 m2 · semi-outdoor</text>
<text x="149" y="471" text-anchor="middle" font-size="8.5" fill="#b3ab9c">/L10/stair</text>
<text x="22" y="840" font-size="12" fill="#1f1f1f">内廊下型集合住宅 — L10 plan</text>
<text x="1146" y="840" text-anchor="end" font-size="9" fill="#a49b8a">koyu — generated from spaces (wall centrelines, mm)</text>
</svg>
