<svg xmlns="http://www.w3.org/2000/svg" width="518" height="438" viewBox="0 0 518 438" font-family="'Hiragino Sans','Noto Sans JP',sans-serif">
<rect width="518" height="438" fill="#faf8f4"/>
<g transform="translate(9.11 9.27) scale(0.02179)"><path d="M1027.53 171.361L224.461 171.363L224.392 1043.39L361.454 1043.42L361.567 308.689L889.587 308.679L889.581 904.864L566.4 904.876L566.387 524.585L419.01 452.015L419.047 1043.39L1027.51 1043.43L1027.53 171.361Z" fill="#171A18"/><path d="M707 445.022L811.864 445L811.858 613.697C811.831 648.974 812.209 684.759 811.831 720L707.005 719.933L707 445.022Z" fill="#A84940"/></g>
<path d="M 234 354 L 434 354 L 434 219 L 234 219 Z" fill="#f1ebdd"/>
<path d="M 84 354 L 234 354 L 234 84 L 84 84 Z" fill="#f1ebdd"/>
<path d="M 234 219 L 434 219 L 434 84 L 234 84 Z" fill="#faf8f4"/>
<line x1="234" y1="219" x2="434" y2="84" stroke="#b3ab9c" stroke-width="0.8" stroke-dasharray="6 4"/>
<line x1="234" y1="84" x2="434" y2="219" stroke="#b3ab9c" stroke-width="0.8" stroke-dasharray="6 4"/>
<line x1="84" y1="58" x2="84" y2="380" stroke="#b5aa94" stroke-width="0.8" stroke-dasharray="7 3 1.5 3"/>
<circle cx="84" cy="44" r="11" fill="none" stroke="#b5aa94" stroke-width="1"/>
<text x="84" y="48" text-anchor="middle" font-size="10" fill="#b5aa94">X1</text>
<line x1="234" y1="58" x2="234" y2="380" stroke="#b5aa94" stroke-width="0.8" stroke-dasharray="7 3 1.5 3"/>
<circle cx="234" cy="44" r="11" fill="none" stroke="#b5aa94" stroke-width="1"/>
<text x="234" y="48" text-anchor="middle" font-size="10" fill="#b5aa94">X2</text>
<line x1="434" y1="58" x2="434" y2="380" stroke="#b5aa94" stroke-width="0.8" stroke-dasharray="7 3 1.5 3"/>
<circle cx="434" cy="44" r="11" fill="none" stroke="#b5aa94" stroke-width="1"/>
<text x="434" y="48" text-anchor="middle" font-size="10" fill="#b5aa94">X3</text>
<line x1="58" y1="354" x2="460" y2="354" stroke="#b5aa94" stroke-width="0.8" stroke-dasharray="7 3 1.5 3"/>
<circle cx="44" cy="354" r="11" fill="none" stroke="#b5aa94" stroke-width="1"/>
<text x="44" y="357.5" text-anchor="middle" font-size="10" fill="#b5aa94">Y1</text>
<line x1="58" y1="219" x2="460" y2="219" stroke="#b5aa94" stroke-width="0.8" stroke-dasharray="7 3 1.5 3"/>
<circle cx="44" cy="219" r="11" fill="none" stroke="#b5aa94" stroke-width="1"/>
<text x="44" y="222.5" text-anchor="middle" font-size="10" fill="#b5aa94">Y2</text>
<line x1="58" y1="84" x2="460" y2="84" stroke="#b5aa94" stroke-width="0.8" stroke-dasharray="7 3 1.5 3"/>
<circle cx="44" cy="84" r="11" fill="none" stroke="#b5aa94" stroke-width="1"/>
<text x="44" y="87.5" text-anchor="middle" font-size="10" fill="#b5aa94">Y3</text>
<path d="M 230.25 350.25 L 230.25 309 L 237.75 309 L 237.75 350.25 Z" fill="#1f1f1f"/>
<path d="M 230.25 264 L 230.25 217.5 L 237.75 217.5 L 237.75 264 Z" fill="#1f1f1f"/>
<g class="boundary-rail">
<line x1="234" y1="219" x2="434" y2="219" stroke="#1f1f1f" stroke-width="1.1"/>
<circle class="boundary-rail-post" cx="234" cy="219" r="1.45" fill="#1f1f1f"/>
<circle class="boundary-rail-post" cx="434" cy="219" r="1.45" fill="#1f1f1f"/>
</g>
<path d="M 430.25 350.25 L 430.25 217.5 L 437.75 217.5 L 437.75 350.25 Z" fill="#1f1f1f"/>
<path d="M 237.75 350.25 L 437.75 350.25 L 437.75 357.75 L 237.75 357.75 Z" fill="#1f1f1f"/>
<path d="M 230.25 217.5 L 230.25 87.75 L 237.75 87.75 L 237.75 217.5 Z" fill="#1f1f1f"/>
<path d="M 87.75 80.25 L 237.75 80.25 L 237.75 87.75 L 87.75 87.75 Z" fill="#1f1f1f"/>
<path d="M 87.75 350.25 L 237.75 350.25 L 237.75 357.75 L 87.75 357.75 Z" fill="#1f1f1f"/>
<path d="M 80.25 357.75 L 80.25 80.25 L 87.75 80.25 L 87.75 357.75 Z" fill="#1f1f1f"/>
<path d="M 430.25 217.5 L 430.25 87.75 L 437.75 87.75 L 437.75 217.5 Z" fill="#1f1f1f"/>
<path d="M 237.75 80.25 L 437.75 80.25 L 437.75 87.75 L 237.75 87.75 Z" fill="#1f1f1f"/>
<line x1="234" y1="309" x2="189" y2="309" stroke="#1f1f1f" stroke-width="1.1"/>
<path class="opening-door-arc" d="M 189 309 A 45 45 0 0 1 234 264" fill="none" stroke="#1f1f1f" stroke-width="0.7"/>
<line x1="84" y1="299" x2="84" y2="208.33333333333337" stroke="#1f1f1f" stroke-width="1.1"/>
<line x1="159" y1="299" x2="159" y2="208.33333333333337" stroke="#1f1f1f" stroke-width="1.1"/>
<line x1="84" y1="284" x2="159" y2="284" stroke="#1f1f1f" stroke-width="0.7"/>
<line x1="84" y1="269" x2="159" y2="269" stroke="#1f1f1f" stroke-width="0.7"/>
<line x1="84" y1="254" x2="159" y2="254" stroke="#1f1f1f" stroke-width="0.7"/>
<line x1="84" y1="239" x2="159" y2="239" stroke="#1f1f1f" stroke-width="0.7"/>
<line x1="84" y1="224" x2="159" y2="224" stroke="#1f1f1f" stroke-width="0.7"/>
<line x1="84" y1="209" x2="159" y2="209" stroke="#1f1f1f" stroke-width="0.7"/>
<g class="run-break-zigzag">
<line x1="84" y1="186.68269823872237" x2="114.9375" y2="204.54447219177644" stroke="#1f1f1f" stroke-width="1.35"/>
<line x1="114.9375" y1="204.54447219177644" x2="118.72636114155692" y2="197.98197219177644" stroke="#1f1f1f" stroke-width="1.35"/>
<line x1="118.72636114155692" y1="197.98197219177644" x2="121.5" y2="208.33333333333337" stroke="#1f1f1f" stroke-width="1.35"/>
<line x1="121.5" y1="208.33333333333337" x2="124.27363885844309" y2="218.68469447489028" stroke="#1f1f1f" stroke-width="1.35"/>
<line x1="124.27363885844309" y1="218.68469447489028" x2="128.0625" y2="212.12219447489028" stroke="#1f1f1f" stroke-width="1.35"/>
<line x1="128.0625" y1="212.12219447489028" x2="159" y2="229.98396842794432" stroke="#1f1f1f" stroke-width="1.35"/>
</g>
<line x1="84" y1="299" x2="159" y2="299" stroke="#1f1f1f" stroke-width="0.7"/>
<g class="run-direction-arrow">
<line x1="121.5" y1="299" x2="121.5" y2="208.33333333333337" stroke="#1f1f1f" stroke-width="0.8"/>
<circle class="run-direction-arrow-start" cx="121.5" cy="299" r="2.8" fill="#faf8f4" stroke="#1f1f1f" stroke-width="0.8"/>
<path class="run-direction-arrow-head" d="M 125 216.33333333333337 L 121.5 208.33333333333337 L 118 216.33333333333337" fill="none" stroke="#1f1f1f" stroke-width="0.8" stroke-linecap="round" stroke-linejoin="round"/>
</g>
<text x="334" y="282.5" text-anchor="middle" font-size="14" fill="#1f1f1f">Landing</text>
<text x="334" y="299.5" text-anchor="middle" font-size="10" fill="#8a8171">hall · 10.8 m2</text>
<text x="334" y="313.5" text-anchor="middle" font-size="8.5" fill="#b3ab9c">/L1/hall</text>
<text x="334" y="147.5" text-anchor="middle" font-size="14" fill="#1f1f1f">Void</text>
<text x="334" y="164.5" text-anchor="middle" font-size="10" fill="#8a8171">void</text>
<text x="334" y="178.5" text-anchor="middle" font-size="8.5" fill="#b3ab9c">/L1/void</text>
<text x="22" y="420" font-size="12" fill="#1f1f1f">Stair and railing symbols — L1 plan</text>
</svg>
