<svg xmlns="http://www.w3.org/2000/svg" width="438" height="368" viewBox="0 0 438 368" font-family="'Hiragino Sans','Noto Sans JP',sans-serif">
<rect width="438" height="368" fill="#faf8f4"/>
<g transform="translate(9.11 9.27) scale(0.02179)"><path d="M1027.53 171.361L224.461 171.363L224.392 1043.39L361.454 1043.42L361.567 308.689L889.587 308.679L889.581 904.864L566.4 904.876L566.387 524.585L419.01 452.015L419.047 1043.39L1027.51 1043.43L1027.53 171.361Z" fill="#171A18"/><path d="M707 445.022L811.864 445L811.858 613.697C811.831 648.974 812.209 684.759 811.831 720L707.005 719.933L707 445.022Z" fill="#A84940"/></g>
<path d="M 264 284 L 354 284 L 354 84 L 264 84 Z" fill="#f1ebdd"/>
<path d="M 84 284 L 264 284 L 264 84 L 84 84 Z" fill="#f1ebdd"/>
<line x1="84" y1="58" x2="84" y2="310" stroke="#b5aa94" stroke-width="0.8" stroke-dasharray="7 3 1.5 3"/>
<circle cx="84" cy="44" r="11" fill="none" stroke="#b5aa94" stroke-width="1"/>
<text x="84" y="48" text-anchor="middle" font-size="10" fill="#b5aa94">X1</text>
<line x1="264" y1="58" x2="264" y2="310" stroke="#b5aa94" stroke-width="0.8" stroke-dasharray="7 3 1.5 3"/>
<circle cx="264" cy="44" r="11" fill="none" stroke="#b5aa94" stroke-width="1"/>
<text x="264" y="48" text-anchor="middle" font-size="10" fill="#b5aa94">X2</text>
<line x1="354" y1="58" x2="354" y2="310" stroke="#b5aa94" stroke-width="0.8" stroke-dasharray="7 3 1.5 3"/>
<circle cx="354" cy="44" r="11" fill="none" stroke="#b5aa94" stroke-width="1"/>
<text x="354" y="48" text-anchor="middle" font-size="10" fill="#b5aa94">X3</text>
<line x1="58" y1="284" x2="380" y2="284" stroke="#b5aa94" stroke-width="0.8" stroke-dasharray="7 3 1.5 3"/>
<circle cx="44" cy="284" r="11" fill="none" stroke="#b5aa94" stroke-width="1"/>
<text x="44" y="287.5" text-anchor="middle" font-size="10" fill="#b5aa94">Y1</text>
<line x1="58" y1="84" x2="380" y2="84" stroke="#b5aa94" stroke-width="0.8" stroke-dasharray="7 3 1.5 3"/>
<circle cx="44" cy="84" r="11" fill="none" stroke="#b5aa94" stroke-width="1"/>
<text x="44" y="87.5" text-anchor="middle" font-size="10" fill="#b5aa94">Y2</text>
<path d="M 261 286.5 L 261 204 L 267 204 L 267 286.5 Z" fill="#1f1f1f"/>
<path d="M 261 164 L 261 81.5 L 267 81.5 L 267 164 Z" fill="#1f1f1f"/>
<path d="M 267 281.5 L 356.5 281.5 L 356.5 286.5 L 267 286.5 Z" fill="#1f1f1f"/>
<path d="M 351.5 281.5 L 351.5 86.5 L 356.5 86.5 L 356.5 281.5 Z" fill="#1f1f1f"/>
<path d="M 267 81.5 L 356.5 81.5 L 356.5 86.5 L 267 86.5 Z" fill="#1f1f1f"/>
<path d="M 86.5 281.5 L 261 281.5 L 261 286.5 L 86.5 286.5 Z" fill="#1f1f1f"/>
<path d="M 86.5 81.5 L 261 81.5 L 261 86.5 L 86.5 86.5 Z" fill="#1f1f1f"/>
<path d="M 81.5 286.5 L 81.5 81.5 L 86.5 81.5 L 86.5 286.5 Z" fill="#1f1f1f"/>
<line x1="264" y1="204" x2="224" y2="204" stroke="#1f1f1f" stroke-width="1.4"/>
<path d="M 224 204 A 40 40 0 0 1 264 164" fill="none" stroke="#1f1f1f" stroke-width="0.7" stroke-dasharray="3 2.5"/>
<text x="309" y="180" text-anchor="middle" font-size="14" fill="#1f1f1f">hall</text>
<text x="309" y="197" text-anchor="middle" font-size="10" fill="#8a8171">hall · 7.2 m2</text>
<text x="309" y="211" text-anchor="middle" font-size="8.5" fill="#b3ab9c">/L1/hall</text>
<text x="174" y="180" text-anchor="middle" font-size="14" fill="#1f1f1f">ldk</text>
<text x="174" y="197" text-anchor="middle" font-size="10" fill="#8a8171">ldk · 14.4 m2</text>
<text x="174" y="211" text-anchor="middle" font-size="8.5" fill="#b3ab9c">/L1/ldk</text>
<text x="22" y="350" font-size="12" fill="#1f1f1f">Untitled — L1 plan</text>
</svg>
