<svg xmlns="http://www.w3.org/2000/svg" width="1768" height="903" viewBox="0 0 1768 903" font-family="'Hiragino Sans','Noto Sans JP',sans-serif">
<rect width="1768" height="903" fill="#faf8f4"/>
<g transform="translate(9.11 9.27) scale(0.02179)"><path d="M1027.53 171.361L224.461 171.363L224.392 1043.39L361.454 1043.42L361.567 308.689L889.587 308.679L889.581 904.864L566.4 904.876L566.387 524.585L419.01 452.015L419.047 1043.39L1027.51 1043.43L1027.53 171.361Z" fill="#171A18"/><path d="M707 445.022L811.864 445L811.858 613.697C811.831 648.974 812.209 684.759 811.831 720L707.005 719.933L707 445.022Z" fill="#A84940"/></g>
<path d="M 84 624 L 244 624 L 244 464 L 84 464 Z" fill="#f1ebdd"/>
<path d="M 84 744 L 244 744 L 244 624 L 84 624 Z" fill="#f1ebdd"/>
<path d="M 484 544 L 564 544 L 564 464 L 484 464 Z" fill="#f1ebdd"/>
<path d="M 244 744 L 564 744 L 564 544 L 244 544 Z" fill="#f1ebdd"/>
<path d="M 564 744 L 724 744 L 724 624 L 564 624 Z" fill="#f1ebdd"/>
<path d="M 244 544 L 484 544 L 484 464 L 244 464 Z" fill="#f1ebdd"/>
<path d="M 564 624 L 724 624 L 724 464 L 564 464 Z" fill="#f1ebdd"/>
<path d="M 724 744 L 1204 744 L 1204 464 L 724 464 Z" fill="#f1ebdd"/>
<path d="M 1204 744 L 1684 744 L 1684 464 L 1204 464 Z" fill="#f1ebdd"/>
<path d="M 244 364 L 564 364 L 564 84 L 244 84 Z" fill="#f1ebdd"/>
<path d="M 564 364 L 1044 364 L 1044 84 L 564 84 Z" fill="#f1ebdd"/>
<path d="M 1204 364 L 1524 364 L 1524 84 L 1204 84 Z" fill="#f1ebdd"/>
<path d="M 84 819 L 724 819 L 724 744 L 84 744 Z" fill="#f8f5ec"/>
<path d="M 724 819 L 1204 819 L 1204 744 L 724 744 Z" fill="#f8f5ec"/>
<path d="M 1204 819 L 1684 819 L 1684 744 L 1204 744 Z" fill="#f8f5ec"/>
<path d="M 84 464 L 1684 464 L 1684 364 L 84 364 Z" fill="#f1ebdd"/>
<path d="M 1044 364 L 1204 364 L 1204 204 L 1044 204 Z" fill="#f1ebdd"/>
<path d="M 1044 204 L 1204 204 L 1204 84 L 1044 84 Z" fill="#f1ebdd"/>
<path d="M 1524 364 L 1684 364 L 1684 84 L 1524 84 Z" fill="#f1ebdd"/>
<path d="M 84 364 L 244 364 L 244 84 L 84 84 Z" fill="#f1ebdd"/>
<line x1="84" y1="58" x2="84" y2="845" stroke="#b5aa94" stroke-width="0.8" stroke-dasharray="7 3 1.5 3"/>
<circle cx="84" cy="44" r="11" fill="none" stroke="#b5aa94" stroke-width="1"/>
<text x="84" y="48" text-anchor="middle" font-size="10" fill="#b5aa94">X1</text>
<line x1="404" y1="58" x2="404" y2="845" stroke="#b5aa94" stroke-width="0.8" stroke-dasharray="7 3 1.5 3"/>
<circle cx="404" cy="44" r="11" fill="none" stroke="#b5aa94" stroke-width="1"/>
<text x="404" y="48" text-anchor="middle" font-size="10" fill="#b5aa94">X2</text>
<line x1="724" y1="58" x2="724" y2="845" stroke="#b5aa94" stroke-width="0.8" stroke-dasharray="7 3 1.5 3"/>
<circle cx="724" cy="44" r="11" fill="none" stroke="#b5aa94" stroke-width="1"/>
<text x="724" y="48" text-anchor="middle" font-size="10" fill="#b5aa94">X3</text>
<line x1="1044" y1="58" x2="1044" y2="845" stroke="#b5aa94" stroke-width="0.8" stroke-dasharray="7 3 1.5 3"/>
<circle cx="1044" cy="44" r="11" fill="none" stroke="#b5aa94" stroke-width="1"/>
<text x="1044" y="48" text-anchor="middle" font-size="10" fill="#b5aa94">X4</text>
<line x1="1364" y1="58" x2="1364" y2="845" stroke="#b5aa94" stroke-width="0.8" stroke-dasharray="7 3 1.5 3"/>
<circle cx="1364" cy="44" r="11" fill="none" stroke="#b5aa94" stroke-width="1"/>
<text x="1364" y="48" text-anchor="middle" font-size="10" fill="#b5aa94">X5</text>
<line x1="1684" y1="58" x2="1684" y2="845" stroke="#b5aa94" stroke-width="0.8" stroke-dasharray="7 3 1.5 3"/>
<circle cx="1684" cy="44" r="11" fill="none" stroke="#b5aa94" stroke-width="1"/>
<text x="1684" y="48" text-anchor="middle" font-size="10" fill="#b5aa94">X6</text>
<line x1="58" y1="744" x2="1710" y2="744" stroke="#b5aa94" stroke-width="0.8" stroke-dasharray="7 3 1.5 3"/>
<circle cx="44" cy="744" r="11" fill="none" stroke="#b5aa94" stroke-width="1"/>
<text x="44" y="747.5" text-anchor="middle" font-size="10" fill="#b5aa94">Y1</text>
<line x1="58" y1="464" x2="1710" y2="464" stroke="#b5aa94" stroke-width="0.8" stroke-dasharray="7 3 1.5 3"/>
<circle cx="44" cy="464" r="11" fill="none" stroke="#b5aa94" stroke-width="1"/>
<text x="44" y="467.5" text-anchor="middle" font-size="10" fill="#b5aa94">Y2</text>
<line x1="58" y1="364" x2="1710" y2="364" stroke="#b5aa94" stroke-width="0.8" stroke-dasharray="7 3 1.5 3"/>
<circle cx="44" cy="364" r="11" fill="none" stroke="#b5aa94" stroke-width="1"/>
<text x="44" y="367.5" text-anchor="middle" font-size="10" fill="#b5aa94">Y3</text>
<line x1="58" y1="84" x2="1710" y2="84" stroke="#b5aa94" stroke-width="0.8" stroke-dasharray="7 3 1.5 3"/>
<circle cx="44" cy="84" r="11" fill="none" stroke="#b5aa94" stroke-width="1"/>
<text x="44" y="87.5" text-anchor="middle" font-size="10" fill="#b5aa94">Y4</text>
<path d="M 89 621 L 247 621 L 247 627 L 89 627 Z" fill="#1f1f1f"/>
<path d="M 241 621 L 241 604 L 247 604 L 247 621 Z" fill="#1f1f1f"/>
<path d="M 241 564 L 241 541 L 247 541 L 247 564 Z" fill="#1f1f1f"/>
<path d="M 241 541 L 241 468.5 L 247 468.5 L 247 541 Z" fill="#1f1f1f"/>
<path d="M 89 459.5 L 247 459.5 L 247 468.5 L 89 468.5 Z" fill="#1f1f1f"/>
<path d="M 79 621 L 79 585.25 L 89 585.25 L 89 621 Z" fill="#1f1f1f"/>
<path d="M 79 502.75 L 79 459.5 L 89 459.5 L 89 502.75 Z" fill="#1f1f1f"/>
<path d="M 241 746.5 L 241 704 L 247 704 L 247 746.5 Z" fill="#1f1f1f"/>
<path d="M 241 664 L 241 627 L 247 627 L 247 664 Z" fill="#1f1f1f"/>
<path d="M 89 741.5 L 122.75 741.5 L 122.75 746.5 L 89 746.5 Z" fill="#1f1f1f"/>
<path d="M 205.25 741.5 L 241 741.5 L 241 746.5 L 205.25 746.5 Z" fill="#1f1f1f"/>
<path d="M 79 746.5 L 79 621 L 89 621 L 89 746.5 Z" fill="#1f1f1f"/>
<path d="M 487 541 L 504 541 L 504 547 L 487 547 Z" fill="#1f1f1f"/>
<path d="M 544 541 L 559.5 541 L 559.5 547 L 544 547 Z" fill="#1f1f1f"/>
<path d="M 481 541 L 481 521.5 L 487 521.5 L 487 541 Z" fill="#1f1f1f"/>
<path d="M 481 486.5 L 481 468.5 L 487 468.5 L 487 486.5 Z" fill="#1f1f1f"/>
<path d="M 559.5 541 L 559.5 468.5 L 568.5 468.5 L 568.5 541 Z" fill="#1f1f1f"/>
<path d="M 487 459.5 L 501.5 459.5 L 501.5 468.5 L 487 468.5 Z" fill="#1f1f1f"/>
<path d="M 546.5 459.5 L 568.5 459.5 L 568.5 468.5 L 546.5 468.5 Z" fill="#1f1f1f"/>
<path d="M 247 541 L 487 541 L 487 547 L 247 547 Z" fill="#1f1f1f"/>
<path d="M 559.5 628.5 L 559.5 541 L 568.5 541 L 568.5 628.5 Z" fill="#1f1f1f"/>
<path d="M 719.5 746.5 L 719.5 628.5 L 728.5 628.5 L 728.5 746.5 Z" fill="#1f1f1f"/>
<path d="M 568.5 619.5 L 728.5 619.5 L 728.5 628.5 L 568.5 628.5 Z" fill="#1f1f1f"/>
<path d="M 247 741.5 L 339 741.5 L 339 746.5 L 247 746.5 Z" fill="#1f1f1f"/>
<path d="M 469 741.5 L 494 741.5 L 494 746.5 L 469 746.5 Z" fill="#1f1f1f"/>
<path d="M 554 741.5 L 579 741.5 L 579 746.5 L 554 746.5 Z" fill="#1f1f1f"/>
<path d="M 709 741.5 L 719.5 741.5 L 719.5 746.5 L 709 746.5 Z" fill="#1f1f1f"/>
<path d="M 247 459.5 L 487 459.5 L 487 468.5 L 247 468.5 Z" fill="#1f1f1f"/>
<path d="M 1199.5 746.5 L 1199.5 468.5 L 1208.5 468.5 L 1208.5 746.5 Z" fill="#1f1f1f"/>
<path d="M 728.5 741.5 L 739 741.5 L 739 746.5 L 728.5 746.5 Z" fill="#1f1f1f"/>
<path d="M 869 741.5 L 899 741.5 L 899 746.5 L 869 746.5 Z" fill="#1f1f1f"/>
<path d="M 1029 741.5 L 1042.75 741.5 L 1042.75 746.5 L 1029 746.5 Z" fill="#1f1f1f"/>
<path d="M 1125.25 741.5 L 1134 741.5 L 1134 746.5 L 1125.25 746.5 Z" fill="#1f1f1f"/>
<path d="M 1194 741.5 L 1199.5 741.5 L 1199.5 746.5 L 1194 746.5 Z" fill="#1f1f1f"/>
<path d="M 568.5 459.5 L 1021.5 459.5 L 1021.5 468.5 L 568.5 468.5 Z" fill="#1f1f1f"/>
<path d="M 1066.5 459.5 L 1208.5 459.5 L 1208.5 468.5 L 1066.5 468.5 Z" fill="#1f1f1f"/>
<path d="M 1208.5 741.5 L 1234 741.5 L 1234 746.5 L 1208.5 746.5 Z" fill="#1f1f1f"/>
<path d="M 1294 741.5 L 1299 741.5 L 1299 746.5 L 1294 746.5 Z" fill="#1f1f1f"/>
<path d="M 1429 741.5 L 1459 741.5 L 1459 746.5 L 1429 746.5 Z" fill="#1f1f1f"/>
<path d="M 1589 741.5 L 1679 741.5 L 1679 746.5 L 1589 746.5 Z" fill="#1f1f1f"/>
<path d="M 1208.5 459.5 L 1341.5 459.5 L 1341.5 468.5 L 1208.5 468.5 Z" fill="#1f1f1f"/>
<path d="M 1386.5 459.5 L 1679 459.5 L 1679 468.5 L 1386.5 468.5 Z" fill="#1f1f1f"/>
<path d="M 1679 746.5 L 1679 645.25 L 1689 645.25 L 1689 746.5 Z" fill="#1f1f1f"/>
<path d="M 1679 562.75 L 1679 459.5 L 1689 459.5 L 1689 562.75 Z" fill="#1f1f1f"/>
<path d="M 559.5 359.5 L 559.5 89 L 568.5 89 L 568.5 359.5 Z" fill="#1f1f1f"/>
<path d="M 248.5 359.5 L 381.5 359.5 L 381.5 368.5 L 248.5 368.5 Z" fill="#1f1f1f"/>
<path d="M 426.5 359.5 L 568.5 359.5 L 568.5 368.5 L 426.5 368.5 Z" fill="#1f1f1f"/>
<path d="M 239.5 359 L 239.5 89 L 248.5 89 L 248.5 359 Z" fill="#1f1f1f"/>
<path d="M 248.5 79 L 284 79 L 284 89 L 248.5 89 Z" fill="#1f1f1f"/>
<path d="M 524 79 L 568.5 79 L 568.5 89 L 524 89 Z" fill="#1f1f1f"/>
<path d="M 568.5 359.5 L 781.5 359.5 L 781.5 368.5 L 568.5 368.5 Z" fill="#1f1f1f"/>
<path d="M 826.5 359.5 L 1048.5 359.5 L 1048.5 368.5 L 826.5 368.5 Z" fill="#1f1f1f"/>
<path d="M 1039.5 359.5 L 1039.5 209 L 1048.5 209 L 1048.5 359.5 Z" fill="#1f1f1f"/>
<path d="M 1039.5 199 L 1039.5 89 L 1048.5 89 L 1048.5 199 Z" fill="#1f1f1f"/>
<path d="M 568.5 79 L 684 79 L 684 89 L 568.5 89 Z" fill="#1f1f1f"/>
<path d="M 924 79 L 1048.5 79 L 1048.5 89 L 924 89 Z" fill="#1f1f1f"/>
<path d="M 1208.5 359.5 L 1341.5 359.5 L 1341.5 368.5 L 1208.5 368.5 Z" fill="#1f1f1f"/>
<path d="M 1386.5 359.5 L 1519.5 359.5 L 1519.5 368.5 L 1386.5 368.5 Z" fill="#1f1f1f"/>
<path d="M 1199.5 368.5 L 1199.5 209 L 1208.5 209 L 1208.5 368.5 Z" fill="#1f1f1f"/>
<path d="M 1199.5 199 L 1199.5 89 L 1208.5 89 L 1208.5 199 Z" fill="#1f1f1f"/>
<path d="M 1519.5 359 L 1519.5 89 L 1528.5 89 L 1528.5 359 Z" fill="#1f1f1f"/>
<path d="M 1208.5 79 L 1244 79 L 1244 89 L 1208.5 89 Z" fill="#1f1f1f"/>
<path d="M 1484 79 L 1528.5 79 L 1528.5 89 L 1484 89 Z" fill="#1f1f1f"/>
<line x1="724" y1="819" x2="724" y2="744" stroke="#1f1f1f" stroke-width="1.4"/>
<line x1="84" y1="819" x2="724" y2="819" stroke="#1f1f1f" stroke-width="1.4"/>
<line x1="84" y1="819" x2="84" y2="744" stroke="#1f1f1f" stroke-width="1.4"/>
<line x1="1204" y1="819" x2="1204" y2="744" stroke="#1f1f1f" stroke-width="1.4"/>
<line x1="724" y1="819" x2="1204" y2="819" stroke="#1f1f1f" stroke-width="1.4"/>
<line x1="1684" y1="819" x2="1684" y2="744" stroke="#1f1f1f" stroke-width="1.4"/>
<line x1="1204" y1="819" x2="1684" y2="819" stroke="#1f1f1f" stroke-width="1.4"/>
<path d="M 1039.5 199 L 1208.5 199 L 1208.5 209 L 1039.5 209 Z" fill="#1f1f1f"/>
<path d="M 1519.5 359 L 1581.5 359 L 1581.5 369 L 1519.5 369 Z" fill="#1f1f1f"/>
<path d="M 1626.5 359 L 1689 359 L 1689 369 L 1626.5 369 Z" fill="#1f1f1f"/>
<path d="M 89 359 L 141.5 359 L 141.5 369 L 89 369 Z" fill="#1f1f1f"/>
<path d="M 186.5 359 L 248.5 359 L 248.5 369 L 186.5 369 Z" fill="#1f1f1f"/>
<path d="M 1679 459.5 L 1679 455.25 L 1689 455.25 L 1689 459.5 Z" fill="#1f1f1f"/>
<path d="M 1679 372.75 L 1679 369 L 1689 369 L 1689 372.75 Z" fill="#1f1f1f"/>
<path d="M 79 459.5 L 79 455.25 L 89 455.25 L 89 459.5 Z" fill="#1f1f1f"/>
<path d="M 79 372.75 L 79 359 L 89 359 L 89 372.75 Z" fill="#1f1f1f"/>
<path d="M 1048.5 79 L 1208.5 79 L 1208.5 89 L 1048.5 89 Z" fill="#1f1f1f"/>
<path d="M 1528.5 79 L 1689 79 L 1689 89 L 1528.5 89 Z" fill="#1f1f1f"/>
<path d="M 1679 359 L 1679 265.25 L 1689 265.25 L 1689 359 Z" fill="#1f1f1f"/>
<path d="M 1679 182.75 L 1679 89 L 1689 89 L 1689 182.75 Z" fill="#1f1f1f"/>
<path d="M 89 79 L 248.5 79 L 248.5 89 L 89 89 Z" fill="#1f1f1f"/>
<path d="M 79 359 L 79 265.25 L 89 265.25 L 89 359 Z" fill="#1f1f1f"/>
<path d="M 79 182.75 L 79 79 L 89 79 L 89 182.75 Z" fill="#1f1f1f"/>
<line x1="249.5" y1="644" x2="249.5" y2="604" stroke="#1f1f1f" stroke-width="2"/>
<line x1="249.5" y1="604" x2="244" y2="604" stroke="#1f1f1f" stroke-width="0.7"/>
<line x1="84" y1="585.25" x2="84" y2="502.75" stroke="#1f1f1f" stroke-width="1"/>
<line x1="249.5" y1="744" x2="249.5" y2="704" stroke="#1f1f1f" stroke-width="2"/>
<line x1="249.5" y1="704" x2="244" y2="704" stroke="#1f1f1f" stroke-width="0.7"/>
<line x1="122.75" y1="744" x2="205.25" y2="744" stroke="#1f1f1f" stroke-width="1"/>
<line x1="464" y1="549.5" x2="504" y2="549.5" stroke="#1f1f1f" stroke-width="2"/>
<line x1="504" y1="549.5" x2="504" y2="544" stroke="#1f1f1f" stroke-width="0.7"/>
<line x1="484" y1="521.5" x2="519" y2="521.5" stroke="#1f1f1f" stroke-width="1.4"/>
<path d="M 519 521.5 A 35 35 0 0 0 484 486.5" fill="none" stroke="#1f1f1f" stroke-width="0.7" stroke-dasharray="3 2.5"/>
<line x1="501.5" y1="464" x2="501.5" y2="509" stroke="#1f1f1f" stroke-width="1.4"/>
<path d="M 501.5 509 A 45 45 0 0 0 546.5 464" fill="none" stroke="#1f1f1f" stroke-width="0.7" stroke-dasharray="3 2.5"/>
<line x1="434" y1="738.5" x2="494" y2="738.5" stroke="#1f1f1f" stroke-width="2"/>
<line x1="494" y1="738.5" x2="494" y2="744" stroke="#1f1f1f" stroke-width="0.7"/>
<line x1="339" y1="744" x2="469" y2="744" stroke="#1f1f1f" stroke-width="1"/>
<line x1="579" y1="744" x2="709" y2="744" stroke="#1f1f1f" stroke-width="1"/>
<line x1="1074" y1="738.5" x2="1134" y2="738.5" stroke="#1f1f1f" stroke-width="2"/>
<line x1="1134" y1="738.5" x2="1134" y2="744" stroke="#1f1f1f" stroke-width="0.7"/>
<line x1="739" y1="744" x2="869" y2="744" stroke="#1f1f1f" stroke-width="1"/>
<line x1="899" y1="744" x2="1029" y2="744" stroke="#1f1f1f" stroke-width="1"/>
<line x1="1042.75" y1="744" x2="1125.25" y2="744" stroke="#1f1f1f" stroke-width="1"/>
<line x1="1021.5" y1="464" x2="1021.5" y2="509" stroke="#1f1f1f" stroke-width="1.4"/>
<path d="M 1021.5 509 A 45 45 0 0 0 1066.5 464" fill="none" stroke="#1f1f1f" stroke-width="0.7" stroke-dasharray="3 2.5"/>
<line x1="1174" y1="738.5" x2="1234" y2="738.5" stroke="#1f1f1f" stroke-width="2"/>
<line x1="1234" y1="738.5" x2="1234" y2="744" stroke="#1f1f1f" stroke-width="0.7"/>
<line x1="1299" y1="744" x2="1429" y2="744" stroke="#1f1f1f" stroke-width="1"/>
<line x1="1459" y1="744" x2="1589" y2="744" stroke="#1f1f1f" stroke-width="1"/>
<line x1="1341.5" y1="464" x2="1341.5" y2="509" stroke="#1f1f1f" stroke-width="1.4"/>
<path d="M 1341.5 509 A 45 45 0 0 0 1386.5 464" fill="none" stroke="#1f1f1f" stroke-width="0.7" stroke-dasharray="3 2.5"/>
<line x1="1684" y1="645.25" x2="1684" y2="562.75" stroke="#1f1f1f" stroke-width="1"/>
<line x1="381.5" y1="364" x2="381.5" y2="319" stroke="#1f1f1f" stroke-width="1.4"/>
<path d="M 381.5 319 A 45 45 0 0 1 426.5 364" fill="none" stroke="#1f1f1f" stroke-width="0.7" stroke-dasharray="3 2.5"/>
<line x1="284" y1="84" x2="524" y2="84" stroke="#1f1f1f" stroke-width="1"/>
<line x1="781.5" y1="364" x2="781.5" y2="319" stroke="#1f1f1f" stroke-width="1.4"/>
<path d="M 781.5 319 A 45 45 0 0 1 826.5 364" fill="none" stroke="#1f1f1f" stroke-width="0.7" stroke-dasharray="3 2.5"/>
<line x1="684" y1="84" x2="924" y2="84" stroke="#1f1f1f" stroke-width="1"/>
<line x1="1341.5" y1="364" x2="1341.5" y2="319" stroke="#1f1f1f" stroke-width="1.4"/>
<path d="M 1341.5 319 A 45 45 0 0 1 1386.5 364" fill="none" stroke="#1f1f1f" stroke-width="0.7" stroke-dasharray="3 2.5"/>
<line x1="1244" y1="84" x2="1484" y2="84" stroke="#1f1f1f" stroke-width="1"/>
<line x1="1581.5" y1="364" x2="1581.5" y2="319" stroke="#1f1f1f" stroke-width="1.4"/>
<path d="M 1581.5 319 A 45 45 0 0 1 1626.5 364" fill="none" stroke="#1f1f1f" stroke-width="0.7" stroke-dasharray="3 2.5"/>
<line x1="141.5" y1="364" x2="141.5" y2="409" stroke="#1f1f1f" stroke-width="1.4"/>
<path d="M 141.5 409 A 45 45 0 0 0 186.5 364" fill="none" stroke="#1f1f1f" stroke-width="0.7" stroke-dasharray="3 2.5"/>
<line x1="1684" y1="455.25" x2="1684" y2="372.75" stroke="#1f1f1f" stroke-width="1"/>
<line x1="84" y1="455.25" x2="84" y2="372.75" stroke="#1f1f1f" stroke-width="1"/>
<line x1="1684" y1="265.25" x2="1684" y2="182.75" stroke="#1f1f1f" stroke-width="1"/>
<line x1="84" y1="265.25" x2="84" y2="182.75" stroke="#1f1f1f" stroke-width="1"/>
<text x="164" y="540" text-anchor="middle" font-size="14" fill="#1f1f1f">洋室1</text>
<text x="164" y="557" text-anchor="middle" font-size="10" fill="#8a8171">bedroom · 10.24 m2</text>
<text x="164" y="571" text-anchor="middle" font-size="8.5" fill="#b3ab9c">/L5/A/bed1</text>
<text x="164" y="680" text-anchor="middle" font-size="14" fill="#1f1f1f">洋室2</text>
<text x="164" y="697" text-anchor="middle" font-size="10" fill="#8a8171">bedroom · 7.68 m2</text>
<text x="164" y="711" text-anchor="middle" font-size="8.5" fill="#b3ab9c">/L5/A/bed2</text>
<text x="524" y="500" text-anchor="middle" font-size="14" fill="#1f1f1f">玄関</text>
<text x="524" y="517" text-anchor="middle" font-size="10" fill="#8a8171">hall · 2.56 m2</text>
<text x="524" y="531" text-anchor="middle" font-size="8.5" fill="#b3ab9c">/L5/A/hall</text>
<text x="404" y="640" text-anchor="middle" font-size="14" fill="#1f1f1f">LDK</text>
<text x="404" y="657" text-anchor="middle" font-size="10" fill="#8a8171">ldk · 33.28 m2</text>
<text x="404" y="671" text-anchor="middle" font-size="8.5" fill="#b3ab9c">/L5/A/ldk</text>
<text x="364" y="500" text-anchor="middle" font-size="14" fill="#1f1f1f">水回り</text>
<text x="364" y="517" text-anchor="middle" font-size="10" fill="#8a8171">wet · 7.68 m2</text>
<text x="364" y="531" text-anchor="middle" font-size="8.5" fill="#b3ab9c">/L5/A/wet</text>
<text x="964" y="600" text-anchor="middle" font-size="14" fill="#1f1f1f">Bタイプ</text>
<text x="964" y="617" text-anchor="middle" font-size="10" fill="#8a8171">unit · 64 m2</text>
<text x="964" y="631" text-anchor="middle" font-size="8.5" fill="#b3ab9c">/L5/B</text>
<text x="1444" y="600" text-anchor="middle" font-size="14" fill="#1f1f1f">Cタイプ</text>
<text x="1444" y="617" text-anchor="middle" font-size="10" fill="#8a8171">unit · 53.76 m2</text>
<text x="1444" y="631" text-anchor="middle" font-size="8.5" fill="#b3ab9c">/L5/C</text>
<text x="404" y="220" text-anchor="middle" font-size="14" fill="#1f1f1f">Dタイプ</text>
<text x="404" y="237" text-anchor="middle" font-size="10" fill="#8a8171">unit · 35.84 m2</text>
<text x="404" y="251" text-anchor="middle" font-size="8.5" fill="#b3ab9c">/L5/D</text>
<text x="804" y="220" text-anchor="middle" font-size="14" fill="#1f1f1f">Eタイプ</text>
<text x="804" y="237" text-anchor="middle" font-size="10" fill="#8a8171">unit · 53.76 m2</text>
<text x="804" y="251" text-anchor="middle" font-size="8.5" fill="#b3ab9c">/L5/E</text>
<text x="1364" y="220" text-anchor="middle" font-size="14" fill="#1f1f1f">Fタイプ</text>
<text x="1364" y="237" text-anchor="middle" font-size="10" fill="#8a8171">unit · 35.84 m2</text>
<text x="1364" y="251" text-anchor="middle" font-size="8.5" fill="#b3ab9c">/L5/F</text>
<text x="404" y="777.5" text-anchor="middle" font-size="14" fill="#1f1f1f">バルコニーA</text>
<text x="404" y="794.5" text-anchor="middle" font-size="10" fill="#8a8171">balcony · 19.2 m2 · semi-outdoor</text>
<text x="404" y="808.5" text-anchor="middle" font-size="8.5" fill="#b3ab9c">/L5/bA</text>
<text x="964" y="777.5" text-anchor="middle" font-size="14" fill="#1f1f1f">バルコニーB</text>
<text x="964" y="794.5" text-anchor="middle" font-size="10" fill="#8a8171">balcony · 14.4 m2 · semi-outdoor</text>
<text x="964" y="808.5" text-anchor="middle" font-size="8.5" fill="#b3ab9c">/L5/bB</text>
<text x="1444" y="777.5" text-anchor="middle" font-size="14" fill="#1f1f1f">バルコニーC</text>
<text x="1444" y="794.5" text-anchor="middle" font-size="10" fill="#8a8171">balcony · 14.4 m2 · semi-outdoor</text>
<text x="1444" y="808.5" text-anchor="middle" font-size="8.5" fill="#b3ab9c">/L5/bC</text>
<text x="884" y="410" text-anchor="middle" font-size="14" fill="#1f1f1f">内廊下</text>
<text x="884" y="427" text-anchor="middle" font-size="10" fill="#8a8171">corridor · 74.24 m2</text>
<text x="884" y="441" text-anchor="middle" font-size="8.5" fill="#b3ab9c">/L5/corridor</text>
<text x="1124" y="140" text-anchor="middle" font-size="14" fill="#1f1f1f">EV</text>
<text x="1124" y="157" text-anchor="middle" font-size="10" fill="#8a8171">shaft · 7.68 m2</text>
<text x="1124" y="171" text-anchor="middle" font-size="8.5" fill="#b3ab9c">/L5/ev</text>
<text x="1604" y="220" text-anchor="middle" font-size="14" fill="#1f1f1f">東階段</text>
<text x="1604" y="237" text-anchor="middle" font-size="10" fill="#8a8171">stair · 17.92 m2</text>
<text x="1604" y="251" text-anchor="middle" font-size="8.5" fill="#b3ab9c">/L5/st1</text>
<text x="164" y="220" text-anchor="middle" font-size="14" fill="#1f1f1f">西階段</text>
<text x="164" y="237" text-anchor="middle" font-size="10" fill="#8a8171">stair · 17.92 m2</text>
<text x="164" y="251" text-anchor="middle" font-size="8.5" fill="#b3ab9c">/L5/st2</text>
<g class="north-arrow">
<line x1="1728.22" y1="58.65" x2="1723.22" y2="21.18" stroke="#1f1f1f" stroke-width="1"/>
<polygon points="1723.22,21.18 1729.39,32.65 1720.27,33.87" fill="#1f1f1f"/>
<text x="1721.9" y="14.67" text-anchor="middle" font-size="9" fill="#1f1f1f">N</text>
</g>
<text x="22" y="885" font-size="12" fill="#1f1f1f">街角の複合ビル — 低層商業+高層住宅 — L5 plan</text>
</svg>
