<svg xmlns="http://www.w3.org/2000/svg" width="528" height="393" viewBox="0 0 528 393" font-family="'Hiragino Sans','Noto Sans JP',sans-serif">
<rect width="528" height="393" fill="#faf8f4"/>
<rect x="84" y="84" width="180" height="225" fill="#f1ebdd"/>
<rect x="264" y="84" width="180" height="225" fill="#f1ebdd"/>
<line x1="84" y1="58" x2="84" y2="335" stroke="#b5aa94" stroke-width="0.8" stroke-dasharray="7 3 1.5 3"/>
<circle cx="84" cy="44" r="11" fill="none" stroke="#b5aa94" stroke-width="1"/>
<text x="84" y="48" text-anchor="middle" font-size="10" fill="#b5aa94">X1</text>
<line x1="264" y1="58" x2="264" y2="335" stroke="#b5aa94" stroke-width="0.8" stroke-dasharray="7 3 1.5 3"/>
<circle cx="264" cy="44" r="11" fill="none" stroke="#b5aa94" stroke-width="1"/>
<text x="264" y="48" text-anchor="middle" font-size="10" fill="#b5aa94">X2</text>
<line x1="444" y1="58" x2="444" y2="335" stroke="#b5aa94" stroke-width="0.8" stroke-dasharray="7 3 1.5 3"/>
<circle cx="444" cy="44" r="11" fill="none" stroke="#b5aa94" stroke-width="1"/>
<text x="444" y="48" text-anchor="middle" font-size="10" fill="#b5aa94">X3</text>
<line x1="58" y1="309" x2="470" y2="309" stroke="#b5aa94" stroke-width="0.8" stroke-dasharray="7 3 1.5 3"/>
<circle cx="44" cy="309" r="11" fill="none" stroke="#b5aa94" stroke-width="1"/>
<text x="44" y="312.5" text-anchor="middle" font-size="10" fill="#b5aa94">Y1</text>
<line x1="58" y1="84" x2="470" y2="84" stroke="#b5aa94" stroke-width="0.8" stroke-dasharray="7 3 1.5 3"/>
<circle cx="44" cy="84" r="11" fill="none" stroke="#b5aa94" stroke-width="1"/>
<text x="44" y="87.5" text-anchor="middle" font-size="10" fill="#b5aa94">Y2</text>
<rect x="261" y="84" width="6" height="225" fill="#1f1f1f"/>
<rect x="84" y="80.25" width="180" height="7.5" fill="#1f1f1f"/>
<rect x="84" y="305.25" width="180" height="7.5" fill="#1f1f1f"/>
<rect x="80.25" y="84" width="7.5" height="225" fill="#1f1f1f"/>
<rect x="264" y="80.25" width="180" height="7.5" fill="#1f1f1f"/>
<rect x="440.25" y="84" width="7.5" height="225" fill="#1f1f1f"/>
<rect x="264" y="305.25" width="180" height="7.5" fill="#1f1f1f"/>
<rect x="260.25" y="177" width="7.5" height="39" fill="#faf8f4"/>
<line x1="264" y1="216" x2="225" y2="216" stroke="#1f1f1f" stroke-width="1.4"/><path d="M 225 216 A 39 39 0 0 1 264 177" fill="none" stroke="#1f1f1f" stroke-width="0.7" stroke-dasharray="3 2.5"/>
<rect x="331.5" y="304.5" width="45" height="9" fill="#faf8f4"/>
<line x1="331.5" y1="309" x2="331.5" y2="264" stroke="#1f1f1f" stroke-width="1.4"/><path d="M 331.5 264 A 45 45 0 0 1 376.5 309" fill="none" stroke="#1f1f1f" stroke-width="0.7" stroke-dasharray="3 2.5"/>
<text x="174" y="192.5" text-anchor="middle" font-size="14" fill="#1f1f1f">居室A</text>
<text x="174" y="209.5" text-anchor="middle" font-size="10" fill="#8a8171">room ・ 16.2㎡</text>
<text x="174" y="223.5" text-anchor="middle" font-size="8.5" fill="#b3ab9c">/L1/a</text>
<text x="354" y="192.5" text-anchor="middle" font-size="14" fill="#1f1f1f">居室B</text>
<text x="354" y="209.5" text-anchor="middle" font-size="10" fill="#8a8171">room ・ 16.2㎡</text>
<text x="354" y="223.5" text-anchor="middle" font-size="8.5" fill="#b3ab9c">/L1/b</text>
<text x="22" y="375" font-size="12" fill="#1f1f1f">二室一扉 — L1 平面</text>
<text x="506" y="375" text-anchor="end" font-size="9" fill="#a49b8a">ifcxs v0 — 空間から生成 (壁芯・mm)</text>
</svg>
